%TF.GenerationSoftware,KiCad,Pcbnew,9.0.2*%
%TF.CreationDate,2025-07-06T15:46:31+09:00*%
%TF.ProjectId,ESP_Racer_2025,4553505f-5261-4636-9572-5f323032352e,rev?*%
%TF.SameCoordinates,Original*%
%TF.FileFunction,Legend,Top*%
%TF.FilePolarity,Positive*%
%FSLAX46Y46*%
G04 Gerber Fmt 4.6, Leading zero omitted, Abs format (unit mm)*
G04 Created by KiCad (PCBNEW 9.0.2) date 2025-07-06 15:46:31*
%MOMM*%
%LPD*%
G01*
G04 APERTURE LIST*
%ADD10C,0.100000*%
%ADD11C,0.127000*%
%ADD12C,0.200000*%
%ADD13C,0.120000*%
%ADD14C,0.152400*%
G04 APERTURE END LIST*
D10*
X136118333Y-90552309D02*
X136118333Y-90909452D01*
X136118333Y-90909452D02*
X136094524Y-90980880D01*
X136094524Y-90980880D02*
X136046905Y-91028500D01*
X136046905Y-91028500D02*
X135975476Y-91052309D01*
X135975476Y-91052309D02*
X135927857Y-91052309D01*
X136332619Y-90599928D02*
X136356428Y-90576119D01*
X136356428Y-90576119D02*
X136404047Y-90552309D01*
X136404047Y-90552309D02*
X136523095Y-90552309D01*
X136523095Y-90552309D02*
X136570714Y-90576119D01*
X136570714Y-90576119D02*
X136594523Y-90599928D01*
X136594523Y-90599928D02*
X136618333Y-90647547D01*
X136618333Y-90647547D02*
X136618333Y-90695166D01*
X136618333Y-90695166D02*
X136594523Y-90766595D01*
X136594523Y-90766595D02*
X136308809Y-91052309D01*
X136308809Y-91052309D02*
X136618333Y-91052309D01*
X141507933Y-90526909D02*
X141507933Y-90884052D01*
X141507933Y-90884052D02*
X141484124Y-90955480D01*
X141484124Y-90955480D02*
X141436505Y-91003100D01*
X141436505Y-91003100D02*
X141365076Y-91026909D01*
X141365076Y-91026909D02*
X141317457Y-91026909D01*
X142007933Y-91026909D02*
X141722219Y-91026909D01*
X141865076Y-91026909D02*
X141865076Y-90526909D01*
X141865076Y-90526909D02*
X141817457Y-90598338D01*
X141817457Y-90598338D02*
X141769838Y-90645957D01*
X141769838Y-90645957D02*
X141722219Y-90669766D01*
X140681509Y-88801333D02*
X140443414Y-88967999D01*
X140681509Y-89087047D02*
X140181509Y-89087047D01*
X140181509Y-89087047D02*
X140181509Y-88896571D01*
X140181509Y-88896571D02*
X140205319Y-88848952D01*
X140205319Y-88848952D02*
X140229128Y-88825142D01*
X140229128Y-88825142D02*
X140276747Y-88801333D01*
X140276747Y-88801333D02*
X140348176Y-88801333D01*
X140348176Y-88801333D02*
X140395795Y-88825142D01*
X140395795Y-88825142D02*
X140419604Y-88848952D01*
X140419604Y-88848952D02*
X140443414Y-88896571D01*
X140443414Y-88896571D02*
X140443414Y-89087047D01*
X140181509Y-88634666D02*
X140181509Y-88325142D01*
X140181509Y-88325142D02*
X140371985Y-88491809D01*
X140371985Y-88491809D02*
X140371985Y-88420380D01*
X140371985Y-88420380D02*
X140395795Y-88372761D01*
X140395795Y-88372761D02*
X140419604Y-88348952D01*
X140419604Y-88348952D02*
X140467223Y-88325142D01*
X140467223Y-88325142D02*
X140586271Y-88325142D01*
X140586271Y-88325142D02*
X140633890Y-88348952D01*
X140633890Y-88348952D02*
X140657700Y-88372761D01*
X140657700Y-88372761D02*
X140681509Y-88420380D01*
X140681509Y-88420380D02*
X140681509Y-88563237D01*
X140681509Y-88563237D02*
X140657700Y-88610856D01*
X140657700Y-88610856D02*
X140633890Y-88634666D01*
X139406866Y-83206890D02*
X139383057Y-83230700D01*
X139383057Y-83230700D02*
X139311628Y-83254509D01*
X139311628Y-83254509D02*
X139264009Y-83254509D01*
X139264009Y-83254509D02*
X139192581Y-83230700D01*
X139192581Y-83230700D02*
X139144962Y-83183080D01*
X139144962Y-83183080D02*
X139121152Y-83135461D01*
X139121152Y-83135461D02*
X139097343Y-83040223D01*
X139097343Y-83040223D02*
X139097343Y-82968795D01*
X139097343Y-82968795D02*
X139121152Y-82873557D01*
X139121152Y-82873557D02*
X139144962Y-82825938D01*
X139144962Y-82825938D02*
X139192581Y-82778319D01*
X139192581Y-82778319D02*
X139264009Y-82754509D01*
X139264009Y-82754509D02*
X139311628Y-82754509D01*
X139311628Y-82754509D02*
X139383057Y-82778319D01*
X139383057Y-82778319D02*
X139406866Y-82802128D01*
X139597343Y-82802128D02*
X139621152Y-82778319D01*
X139621152Y-82778319D02*
X139668771Y-82754509D01*
X139668771Y-82754509D02*
X139787819Y-82754509D01*
X139787819Y-82754509D02*
X139835438Y-82778319D01*
X139835438Y-82778319D02*
X139859247Y-82802128D01*
X139859247Y-82802128D02*
X139883057Y-82849747D01*
X139883057Y-82849747D02*
X139883057Y-82897366D01*
X139883057Y-82897366D02*
X139859247Y-82968795D01*
X139859247Y-82968795D02*
X139573533Y-83254509D01*
X139573533Y-83254509D02*
X139883057Y-83254509D01*
X137354109Y-88801333D02*
X137116014Y-88967999D01*
X137354109Y-89087047D02*
X136854109Y-89087047D01*
X136854109Y-89087047D02*
X136854109Y-88896571D01*
X136854109Y-88896571D02*
X136877919Y-88848952D01*
X136877919Y-88848952D02*
X136901728Y-88825142D01*
X136901728Y-88825142D02*
X136949347Y-88801333D01*
X136949347Y-88801333D02*
X137020776Y-88801333D01*
X137020776Y-88801333D02*
X137068395Y-88825142D01*
X137068395Y-88825142D02*
X137092204Y-88848952D01*
X137092204Y-88848952D02*
X137116014Y-88896571D01*
X137116014Y-88896571D02*
X137116014Y-89087047D01*
X136901728Y-88610856D02*
X136877919Y-88587047D01*
X136877919Y-88587047D02*
X136854109Y-88539428D01*
X136854109Y-88539428D02*
X136854109Y-88420380D01*
X136854109Y-88420380D02*
X136877919Y-88372761D01*
X136877919Y-88372761D02*
X136901728Y-88348952D01*
X136901728Y-88348952D02*
X136949347Y-88325142D01*
X136949347Y-88325142D02*
X136996966Y-88325142D01*
X136996966Y-88325142D02*
X137068395Y-88348952D01*
X137068395Y-88348952D02*
X137354109Y-88634666D01*
X137354109Y-88634666D02*
X137354109Y-88325142D01*
X147313609Y-84102333D02*
X147075514Y-84268999D01*
X147313609Y-84388047D02*
X146813609Y-84388047D01*
X146813609Y-84388047D02*
X146813609Y-84197571D01*
X146813609Y-84197571D02*
X146837419Y-84149952D01*
X146837419Y-84149952D02*
X146861228Y-84126142D01*
X146861228Y-84126142D02*
X146908847Y-84102333D01*
X146908847Y-84102333D02*
X146980276Y-84102333D01*
X146980276Y-84102333D02*
X147027895Y-84126142D01*
X147027895Y-84126142D02*
X147051704Y-84149952D01*
X147051704Y-84149952D02*
X147075514Y-84197571D01*
X147075514Y-84197571D02*
X147075514Y-84388047D01*
X146813609Y-83673761D02*
X146813609Y-83768999D01*
X146813609Y-83768999D02*
X146837419Y-83816618D01*
X146837419Y-83816618D02*
X146861228Y-83840428D01*
X146861228Y-83840428D02*
X146932657Y-83888047D01*
X146932657Y-83888047D02*
X147027895Y-83911856D01*
X147027895Y-83911856D02*
X147218371Y-83911856D01*
X147218371Y-83911856D02*
X147265990Y-83888047D01*
X147265990Y-83888047D02*
X147289800Y-83864237D01*
X147289800Y-83864237D02*
X147313609Y-83816618D01*
X147313609Y-83816618D02*
X147313609Y-83721380D01*
X147313609Y-83721380D02*
X147289800Y-83673761D01*
X147289800Y-83673761D02*
X147265990Y-83649952D01*
X147265990Y-83649952D02*
X147218371Y-83626142D01*
X147218371Y-83626142D02*
X147099323Y-83626142D01*
X147099323Y-83626142D02*
X147051704Y-83649952D01*
X147051704Y-83649952D02*
X147027895Y-83673761D01*
X147027895Y-83673761D02*
X147004085Y-83721380D01*
X147004085Y-83721380D02*
X147004085Y-83816618D01*
X147004085Y-83816618D02*
X147027895Y-83864237D01*
X147027895Y-83864237D02*
X147051704Y-83888047D01*
X147051704Y-83888047D02*
X147099323Y-83911856D01*
X142637309Y-87251933D02*
X142399214Y-87418599D01*
X142637309Y-87537647D02*
X142137309Y-87537647D01*
X142137309Y-87537647D02*
X142137309Y-87347171D01*
X142137309Y-87347171D02*
X142161119Y-87299552D01*
X142161119Y-87299552D02*
X142184928Y-87275742D01*
X142184928Y-87275742D02*
X142232547Y-87251933D01*
X142232547Y-87251933D02*
X142303976Y-87251933D01*
X142303976Y-87251933D02*
X142351595Y-87275742D01*
X142351595Y-87275742D02*
X142375404Y-87299552D01*
X142375404Y-87299552D02*
X142399214Y-87347171D01*
X142399214Y-87347171D02*
X142399214Y-87537647D01*
X142637309Y-86775742D02*
X142637309Y-87061456D01*
X142637309Y-86918599D02*
X142137309Y-86918599D01*
X142137309Y-86918599D02*
X142208738Y-86966218D01*
X142208738Y-86966218D02*
X142256357Y-87013837D01*
X142256357Y-87013837D02*
X142280166Y-87061456D01*
X147265990Y-82552933D02*
X147289800Y-82576742D01*
X147289800Y-82576742D02*
X147313609Y-82648171D01*
X147313609Y-82648171D02*
X147313609Y-82695790D01*
X147313609Y-82695790D02*
X147289800Y-82767218D01*
X147289800Y-82767218D02*
X147242180Y-82814837D01*
X147242180Y-82814837D02*
X147194561Y-82838647D01*
X147194561Y-82838647D02*
X147099323Y-82862456D01*
X147099323Y-82862456D02*
X147027895Y-82862456D01*
X147027895Y-82862456D02*
X146932657Y-82838647D01*
X146932657Y-82838647D02*
X146885038Y-82814837D01*
X146885038Y-82814837D02*
X146837419Y-82767218D01*
X146837419Y-82767218D02*
X146813609Y-82695790D01*
X146813609Y-82695790D02*
X146813609Y-82648171D01*
X146813609Y-82648171D02*
X146837419Y-82576742D01*
X146837419Y-82576742D02*
X146861228Y-82552933D01*
X146813609Y-82100552D02*
X146813609Y-82338647D01*
X146813609Y-82338647D02*
X147051704Y-82362456D01*
X147051704Y-82362456D02*
X147027895Y-82338647D01*
X147027895Y-82338647D02*
X147004085Y-82291028D01*
X147004085Y-82291028D02*
X147004085Y-82171980D01*
X147004085Y-82171980D02*
X147027895Y-82124361D01*
X147027895Y-82124361D02*
X147051704Y-82100552D01*
X147051704Y-82100552D02*
X147099323Y-82076742D01*
X147099323Y-82076742D02*
X147218371Y-82076742D01*
X147218371Y-82076742D02*
X147265990Y-82100552D01*
X147265990Y-82100552D02*
X147289800Y-82124361D01*
X147289800Y-82124361D02*
X147313609Y-82171980D01*
X147313609Y-82171980D02*
X147313609Y-82291028D01*
X147313609Y-82291028D02*
X147289800Y-82338647D01*
X147289800Y-82338647D02*
X147265990Y-82362456D01*
X136377509Y-81721047D02*
X135877509Y-81721047D01*
X135877509Y-81721047D02*
X135877509Y-81601999D01*
X135877509Y-81601999D02*
X135901319Y-81530571D01*
X135901319Y-81530571D02*
X135948938Y-81482952D01*
X135948938Y-81482952D02*
X135996557Y-81459142D01*
X135996557Y-81459142D02*
X136091795Y-81435333D01*
X136091795Y-81435333D02*
X136163223Y-81435333D01*
X136163223Y-81435333D02*
X136258461Y-81459142D01*
X136258461Y-81459142D02*
X136306080Y-81482952D01*
X136306080Y-81482952D02*
X136353700Y-81530571D01*
X136353700Y-81530571D02*
X136377509Y-81601999D01*
X136377509Y-81601999D02*
X136377509Y-81721047D01*
X136377509Y-80959142D02*
X136377509Y-81244856D01*
X136377509Y-81101999D02*
X135877509Y-81101999D01*
X135877509Y-81101999D02*
X135948938Y-81149618D01*
X135948938Y-81149618D02*
X135996557Y-81197237D01*
X135996557Y-81197237D02*
X136020366Y-81244856D01*
X147313609Y-85575533D02*
X147075514Y-85742199D01*
X147313609Y-85861247D02*
X146813609Y-85861247D01*
X146813609Y-85861247D02*
X146813609Y-85670771D01*
X146813609Y-85670771D02*
X146837419Y-85623152D01*
X146837419Y-85623152D02*
X146861228Y-85599342D01*
X146861228Y-85599342D02*
X146908847Y-85575533D01*
X146908847Y-85575533D02*
X146980276Y-85575533D01*
X146980276Y-85575533D02*
X147027895Y-85599342D01*
X147027895Y-85599342D02*
X147051704Y-85623152D01*
X147051704Y-85623152D02*
X147075514Y-85670771D01*
X147075514Y-85670771D02*
X147075514Y-85861247D01*
X146980276Y-85146961D02*
X147313609Y-85146961D01*
X146789800Y-85266009D02*
X147146942Y-85385056D01*
X147146942Y-85385056D02*
X147146942Y-85075533D01*
X137230290Y-83543533D02*
X137254100Y-83567342D01*
X137254100Y-83567342D02*
X137277909Y-83638771D01*
X137277909Y-83638771D02*
X137277909Y-83686390D01*
X137277909Y-83686390D02*
X137254100Y-83757818D01*
X137254100Y-83757818D02*
X137206480Y-83805437D01*
X137206480Y-83805437D02*
X137158861Y-83829247D01*
X137158861Y-83829247D02*
X137063623Y-83853056D01*
X137063623Y-83853056D02*
X136992195Y-83853056D01*
X136992195Y-83853056D02*
X136896957Y-83829247D01*
X136896957Y-83829247D02*
X136849338Y-83805437D01*
X136849338Y-83805437D02*
X136801719Y-83757818D01*
X136801719Y-83757818D02*
X136777909Y-83686390D01*
X136777909Y-83686390D02*
X136777909Y-83638771D01*
X136777909Y-83638771D02*
X136801719Y-83567342D01*
X136801719Y-83567342D02*
X136825528Y-83543533D01*
X136777909Y-83376866D02*
X136777909Y-83067342D01*
X136777909Y-83067342D02*
X136968385Y-83234009D01*
X136968385Y-83234009D02*
X136968385Y-83162580D01*
X136968385Y-83162580D02*
X136992195Y-83114961D01*
X136992195Y-83114961D02*
X137016004Y-83091152D01*
X137016004Y-83091152D02*
X137063623Y-83067342D01*
X137063623Y-83067342D02*
X137182671Y-83067342D01*
X137182671Y-83067342D02*
X137230290Y-83091152D01*
X137230290Y-83091152D02*
X137254100Y-83114961D01*
X137254100Y-83114961D02*
X137277909Y-83162580D01*
X137277909Y-83162580D02*
X137277909Y-83305437D01*
X137277909Y-83305437D02*
X137254100Y-83353056D01*
X137254100Y-83353056D02*
X137230290Y-83376866D01*
X143657590Y-81003533D02*
X143681400Y-81027342D01*
X143681400Y-81027342D02*
X143705209Y-81098771D01*
X143705209Y-81098771D02*
X143705209Y-81146390D01*
X143705209Y-81146390D02*
X143681400Y-81217818D01*
X143681400Y-81217818D02*
X143633780Y-81265437D01*
X143633780Y-81265437D02*
X143586161Y-81289247D01*
X143586161Y-81289247D02*
X143490923Y-81313056D01*
X143490923Y-81313056D02*
X143419495Y-81313056D01*
X143419495Y-81313056D02*
X143324257Y-81289247D01*
X143324257Y-81289247D02*
X143276638Y-81265437D01*
X143276638Y-81265437D02*
X143229019Y-81217818D01*
X143229019Y-81217818D02*
X143205209Y-81146390D01*
X143205209Y-81146390D02*
X143205209Y-81098771D01*
X143205209Y-81098771D02*
X143229019Y-81027342D01*
X143229019Y-81027342D02*
X143252828Y-81003533D01*
X143371876Y-80574961D02*
X143705209Y-80574961D01*
X143181400Y-80694009D02*
X143538542Y-80813056D01*
X143538542Y-80813056D02*
X143538542Y-80503533D01*
X139406866Y-86508890D02*
X139383057Y-86532700D01*
X139383057Y-86532700D02*
X139311628Y-86556509D01*
X139311628Y-86556509D02*
X139264009Y-86556509D01*
X139264009Y-86556509D02*
X139192581Y-86532700D01*
X139192581Y-86532700D02*
X139144962Y-86485080D01*
X139144962Y-86485080D02*
X139121152Y-86437461D01*
X139121152Y-86437461D02*
X139097343Y-86342223D01*
X139097343Y-86342223D02*
X139097343Y-86270795D01*
X139097343Y-86270795D02*
X139121152Y-86175557D01*
X139121152Y-86175557D02*
X139144962Y-86127938D01*
X139144962Y-86127938D02*
X139192581Y-86080319D01*
X139192581Y-86080319D02*
X139264009Y-86056509D01*
X139264009Y-86056509D02*
X139311628Y-86056509D01*
X139311628Y-86056509D02*
X139383057Y-86080319D01*
X139383057Y-86080319D02*
X139406866Y-86104128D01*
X139883057Y-86556509D02*
X139597343Y-86556509D01*
X139740200Y-86556509D02*
X139740200Y-86056509D01*
X139740200Y-86056509D02*
X139692581Y-86127938D01*
X139692581Y-86127938D02*
X139644962Y-86175557D01*
X139644962Y-86175557D02*
X139597343Y-86199366D01*
X147313609Y-81079733D02*
X147075514Y-81246399D01*
X147313609Y-81365447D02*
X146813609Y-81365447D01*
X146813609Y-81365447D02*
X146813609Y-81174971D01*
X146813609Y-81174971D02*
X146837419Y-81127352D01*
X146837419Y-81127352D02*
X146861228Y-81103542D01*
X146861228Y-81103542D02*
X146908847Y-81079733D01*
X146908847Y-81079733D02*
X146980276Y-81079733D01*
X146980276Y-81079733D02*
X147027895Y-81103542D01*
X147027895Y-81103542D02*
X147051704Y-81127352D01*
X147051704Y-81127352D02*
X147075514Y-81174971D01*
X147075514Y-81174971D02*
X147075514Y-81365447D01*
X146813609Y-80627352D02*
X146813609Y-80865447D01*
X146813609Y-80865447D02*
X147051704Y-80889256D01*
X147051704Y-80889256D02*
X147027895Y-80865447D01*
X147027895Y-80865447D02*
X147004085Y-80817828D01*
X147004085Y-80817828D02*
X147004085Y-80698780D01*
X147004085Y-80698780D02*
X147027895Y-80651161D01*
X147027895Y-80651161D02*
X147051704Y-80627352D01*
X147051704Y-80627352D02*
X147099323Y-80603542D01*
X147099323Y-80603542D02*
X147218371Y-80603542D01*
X147218371Y-80603542D02*
X147265990Y-80627352D01*
X147265990Y-80627352D02*
X147289800Y-80651161D01*
X147289800Y-80651161D02*
X147313609Y-80698780D01*
X147313609Y-80698780D02*
X147313609Y-80817828D01*
X147313609Y-80817828D02*
X147289800Y-80865447D01*
X147289800Y-80865447D02*
X147265990Y-80889256D01*
D11*
%TO.C,U1*%
X136494000Y-84658000D02*
X137254000Y-84658000D01*
X136494000Y-87658000D02*
X137254000Y-87658000D01*
D12*
X135124000Y-84908000D02*
G75*
G02*
X134924000Y-84908000I-100000J0D01*
G01*
X134924000Y-84908000D02*
G75*
G02*
X135124000Y-84908000I100000J0D01*
G01*
D13*
%TO.C,J2*%
X133750000Y-93550000D02*
X133750000Y-92550000D01*
X133750000Y-93550000D02*
X134750000Y-93550000D01*
X134040000Y-89840000D02*
X134040000Y-93260000D01*
X134040000Y-93260000D02*
X138510000Y-93260000D01*
X134350000Y-91200000D02*
X134550000Y-91200000D01*
X134350000Y-92000000D02*
X134350000Y-91200000D01*
X134550000Y-90350000D02*
X136275000Y-90350000D01*
X134550000Y-91200000D02*
X134550000Y-90350000D01*
X134550000Y-92000000D02*
X134350000Y-92000000D01*
X134550000Y-92750000D02*
X134550000Y-92000000D01*
X136275000Y-92750000D02*
X134550000Y-92750000D01*
X136275000Y-92750000D02*
X138000000Y-92750000D01*
X138000000Y-90350000D02*
X136275000Y-90350000D01*
X138000000Y-91200000D02*
X138000000Y-90350000D01*
X138000000Y-92000000D02*
X138200000Y-92000000D01*
X138000000Y-92750000D02*
X138000000Y-92000000D01*
X138200000Y-91200000D02*
X138000000Y-91200000D01*
X138200000Y-92000000D02*
X138200000Y-91200000D01*
X138510000Y-89840000D02*
X134040000Y-89840000D01*
X138510000Y-93260000D02*
X138510000Y-89840000D01*
%TO.C,J1*%
X139063400Y-93550000D02*
X139063400Y-92550000D01*
X139063400Y-93550000D02*
X140063400Y-93550000D01*
X139353400Y-89840000D02*
X139353400Y-93260000D01*
X139353400Y-93260000D02*
X143823400Y-93260000D01*
X139663400Y-91200000D02*
X139863400Y-91200000D01*
X139663400Y-92000000D02*
X139663400Y-91200000D01*
X139863400Y-90350000D02*
X141588400Y-90350000D01*
X139863400Y-91200000D02*
X139863400Y-90350000D01*
X139863400Y-92000000D02*
X139663400Y-92000000D01*
X139863400Y-92750000D02*
X139863400Y-92000000D01*
X141588400Y-92750000D02*
X139863400Y-92750000D01*
X141588400Y-92750000D02*
X143313400Y-92750000D01*
X143313400Y-90350000D02*
X141588400Y-90350000D01*
X143313400Y-91200000D02*
X143313400Y-90350000D01*
X143313400Y-92000000D02*
X143513400Y-92000000D01*
X143313400Y-92750000D02*
X143313400Y-92000000D01*
X143513400Y-91200000D02*
X143313400Y-91200000D01*
X143513400Y-92000000D02*
X143513400Y-91200000D01*
X143823400Y-89840000D02*
X139353400Y-89840000D01*
X143823400Y-93260000D02*
X143823400Y-89840000D01*
%TO.C,J3*%
X144840000Y-86890000D02*
X144840000Y-92610000D01*
X144840000Y-92610000D02*
X148260000Y-92610000D01*
X145350000Y-87400000D02*
X145350000Y-89750000D01*
X145350000Y-92100000D02*
X145350000Y-89750000D01*
X146200000Y-87200000D02*
X146200000Y-87400000D01*
X146200000Y-87400000D02*
X145350000Y-87400000D01*
X146200000Y-92100000D02*
X145350000Y-92100000D01*
X146200000Y-92300000D02*
X146200000Y-92100000D01*
X147000000Y-87200000D02*
X146200000Y-87200000D01*
X147000000Y-87400000D02*
X147000000Y-87200000D01*
X147000000Y-92100000D02*
X147000000Y-92300000D01*
X147000000Y-92300000D02*
X146200000Y-92300000D01*
X147750000Y-87400000D02*
X147000000Y-87400000D01*
X147750000Y-89750000D02*
X147750000Y-87400000D01*
X147750000Y-89750000D02*
X147750000Y-92100000D01*
X147750000Y-92100000D02*
X147000000Y-92100000D01*
X148260000Y-86890000D02*
X144840000Y-86890000D01*
X148260000Y-92610000D02*
X148260000Y-86890000D01*
X148550000Y-92900000D02*
X147550000Y-92900000D01*
X148550000Y-92900000D02*
X148550000Y-91900000D01*
%TO.C,R3*%
X140147976Y-88195500D02*
X140657424Y-88195500D01*
X140147976Y-89240500D02*
X140657424Y-89240500D01*
%TO.C,C2*%
X138980200Y-83174667D02*
X138980200Y-82882133D01*
X140000200Y-83174667D02*
X140000200Y-82882133D01*
%TO.C,R2*%
X137359224Y-88195500D02*
X136849776Y-88195500D01*
X137359224Y-89240500D02*
X136849776Y-89240500D01*
%TO.C,R6*%
X146832776Y-84995100D02*
X147342224Y-84995100D01*
X146832776Y-86040100D02*
X147342224Y-86040100D01*
%TO.C,R1*%
X142207276Y-86646100D02*
X142716724Y-86646100D01*
X142207276Y-87691100D02*
X142716724Y-87691100D01*
%TO.C,C5*%
X146941233Y-81959600D02*
X147233767Y-81959600D01*
X146941233Y-82979600D02*
X147233767Y-82979600D01*
%TO.C,D1*%
X134466000Y-80642400D02*
X134466000Y-82112400D01*
X134466000Y-82112400D02*
X136926000Y-82112400D01*
X136926000Y-80642400D02*
X134466000Y-80642400D01*
%TO.C,R4*%
X147342224Y-83471100D02*
X146832776Y-83471100D01*
X147342224Y-84516100D02*
X146832776Y-84516100D01*
%TO.C,C3*%
X137198067Y-82950200D02*
X136905533Y-82950200D01*
X137198067Y-83970200D02*
X136905533Y-83970200D01*
D12*
%TO.C,IC1*%
X142074000Y-85313000D02*
X142074000Y-85313000D01*
X142274000Y-85313000D02*
X142274000Y-85313000D01*
X142074000Y-85313000D02*
G75*
G02*
X142274000Y-85313000I100000J0D01*
G01*
X142274000Y-85313000D02*
G75*
G02*
X142074000Y-85313000I-100000J0D01*
G01*
D13*
%TO.C,C4*%
X143332833Y-80410200D02*
X143625367Y-80410200D01*
X143332833Y-81430200D02*
X143625367Y-81430200D01*
%TO.C,C1*%
X138980200Y-86184133D02*
X138980200Y-86476667D01*
X140000200Y-86184133D02*
X140000200Y-86476667D01*
%TO.C,U3*%
X129890000Y-59788600D02*
X129890000Y-65598600D01*
X129890000Y-59788600D02*
X148110000Y-59788600D01*
X129890000Y-79708600D02*
X129890000Y-80008600D01*
X129890000Y-80008600D02*
X148110000Y-80008600D01*
X148110000Y-59788600D02*
X148110000Y-66288600D01*
X148110000Y-79708600D02*
X148110000Y-80008600D01*
X129900000Y-66298600D02*
X129400000Y-66298600D01*
X129900000Y-65798600D01*
X129900000Y-66298600D01*
G36*
X129900000Y-66298600D02*
G01*
X129400000Y-66298600D01*
X129900000Y-65798600D01*
X129900000Y-66298600D01*
G37*
%TO.C,R5*%
X146832776Y-80448500D02*
X147342224Y-80448500D01*
X146832776Y-81493500D02*
X147342224Y-81493500D01*
D14*
%TO.C,U2*%
X129141700Y-80539200D02*
X129141700Y-92020000D01*
X129141700Y-92020000D02*
X130614900Y-92020000D01*
X130614900Y-80539200D02*
X129141700Y-80539200D01*
X134374100Y-83409400D02*
X134628100Y-83536400D01*
X134374100Y-83638000D02*
X134628100Y-83536400D01*
%TD*%
M02*
