M48
; DRILL file {KiCad 9.0.2} date 2025-07-06T15:46:20+0900
; FORMAT={-:-/ absolute / inch / decimal}
; #@! TF.CreationDate,2025-07-06T15:46:20+09:00
; #@! TF.GenerationSoftware,Kicad,Pcbnew,9.0.2
; #@! TF.FileFunction,Plated,1,2,PTH
FMAT,2
INCH
; #@! TA.AperFunction,Plated,PTH,ViaDrill
T1C0.0079
; #@! TA.AperFunction,Plated,PTH,ComponentDrill
T2C0.0079
; #@! TA.AperFunction,Plated,PTH,ViaDrill
T3C0.0118
; #@! TA.AperFunction,Plated,PTH,ViaDrill
T4C0.0157
; #@! TA.AperFunction,Plated,PTH,ViaDrill
T5C0.0197
; #@! TA.AperFunction,Plated,PTH,ComponentDrill
T6C0.0197
; #@! TA.AperFunction,Plated,PTH,ViaDrill
T7C0.0236
; #@! TA.AperFunction,Plated,PTH,ViaDrill
T8C0.0315
; #@! TA.AperFunction,Plated,PTH,ComponentDrill
T9C0.0315
; #@! TA.AperFunction,Plated,PTH,ViaDrill
T10C0.1181
%
G90
G05
T1
X5.1727Y-2.8828
X5.1782Y-2.8313
X5.1987Y-2.7658
X5.3677Y-3.5318
X5.4157Y-3.1768
X5.445Y-3.4216
X5.4457Y-3.3828
X5.465Y-3.5114
X5.4967Y-3.5508
X5.5561Y-3.3841
X5.6146Y-3.3648
X5.6456Y-3.2421
X5.6467Y-3.4958
X5.6753Y-3.2643
X5.699Y-3.1506
X5.7157Y-2.8198
X5.7336Y-2.7838
X5.7547Y-3.4138
X5.7787Y-2.6658
T2
X5.3887Y-3.3625
X5.3887Y-3.4216
X5.4669Y-2.8602
X5.4669Y-2.9035
X5.4886Y-2.8385
X5.4886Y-2.8818
X5.4886Y-2.9251
X5.5102Y-2.8602
X5.5102Y-2.9035
X5.5319Y-2.8385
X5.5319Y-2.8818
X5.5319Y-2.9251
X5.5535Y-2.8602
X5.5535Y-2.9035
T3
X5.3113Y-3.4369
X5.3207Y-3.3778
X5.6171Y-3.2408
T4
X5.1575Y-3.3858
X5.2756Y-2.9921
X5.3235Y-3.301
X5.3667Y-2.6858
X5.4724Y-3.0315
X5.5307Y-3.2978
X5.5906Y-2.7165
T5
X5.5729Y-3.2153
T6
X5.3406Y-3.622
X5.3898Y-3.622
X5.5497Y-3.622
X5.599Y-3.622
X5.7874Y-3.4843
X5.7874Y-3.4941
X5.7874Y-3.5335
X5.7874Y-3.5728
X5.7874Y-3.5827
T7
X5.403Y-3.2471
X5.5405Y-3.2436
T8
X5.3089Y-3.2677
T9
X5.3887Y-3.392
T10
X5.5102Y-2.8819
M30
