%TF.GenerationSoftware,KiCad,Pcbnew,9.0.2*%
%TF.CreationDate,2025-07-06T15:46:31+09:00*%
%TF.ProjectId,ESP_Racer_2025,4553505f-5261-4636-9572-5f323032352e,rev?*%
%TF.SameCoordinates,Original*%
%TF.FileFunction,Soldermask,Top*%
%TF.FilePolarity,Negative*%
%FSLAX46Y46*%
G04 Gerber Fmt 4.6, Leading zero omitted, Abs format (unit mm)*
G04 Created by KiCad (PCBNEW 9.0.2) date 2025-07-06 15:46:31*
%MOMM*%
%LPD*%
G01*
G04 APERTURE LIST*
G04 Aperture macros list*
%AMRoundRect*
0 Rectangle with rounded corners*
0 $1 Rounding radius*
0 $2 $3 $4 $5 $6 $7 $8 $9 X,Y pos of 4 corners*
0 Add a 4 corners polygon primitive as box body*
4,1,4,$2,$3,$4,$5,$6,$7,$8,$9,$2,$3,0*
0 Add four circle primitives for the rounded corners*
1,1,$1+$1,$2,$3*
1,1,$1+$1,$4,$5*
1,1,$1+$1,$6,$7*
1,1,$1+$1,$8,$9*
0 Add four rect primitives between the rounded corners*
20,1,$1+$1,$2,$3,$4,$5,0*
20,1,$1+$1,$4,$5,$6,$7,0*
20,1,$1+$1,$6,$7,$8,$9,0*
20,1,$1+$1,$8,$9,$2,$3,0*%
G04 Aperture macros list end*
%ADD10C,0.010000*%
%ADD11RoundRect,0.200000X-0.200000X-0.800000X0.200000X-0.800000X0.200000X0.800000X-0.200000X0.800000X0*%
%ADD12O,0.800000X2.000000*%
%ADD13RoundRect,0.200000X0.800000X-0.200000X0.800000X0.200000X-0.800000X0.200000X-0.800000X-0.200000X0*%
%ADD14O,0.600000X0.600000*%
%ADD15O,2.000000X0.800000*%
%ADD16RoundRect,0.237500X-0.250000X-0.237500X0.250000X-0.237500X0.250000X0.237500X-0.250000X0.237500X0*%
%ADD17RoundRect,0.237500X0.237500X-0.300000X0.237500X0.300000X-0.237500X0.300000X-0.237500X-0.300000X0*%
%ADD18RoundRect,0.237500X0.250000X0.237500X-0.250000X0.237500X-0.250000X-0.237500X0.250000X-0.237500X0*%
%ADD19RoundRect,0.237500X-0.300000X-0.237500X0.300000X-0.237500X0.300000X0.237500X-0.300000X0.237500X0*%
%ADD20RoundRect,0.237500X-0.287500X-0.237500X0.287500X-0.237500X0.287500X0.237500X-0.287500X0.237500X0*%
%ADD21RoundRect,0.237500X0.300000X0.237500X-0.300000X0.237500X-0.300000X-0.237500X0.300000X-0.237500X0*%
%ADD22R,0.350000X0.375000*%
%ADD23R,0.400000X2.100000*%
%ADD24R,1.500000X1.100000*%
%ADD25RoundRect,0.237500X-0.237500X0.300000X-0.237500X-0.300000X0.237500X-0.300000X0.237500X0.300000X0*%
%ADD26R,1.500000X0.900000*%
%ADD27C,0.600000*%
%ADD28R,2.900000X2.900000*%
%ADD29RoundRect,0.102000X0.698500X-0.152400X0.698500X0.152400X-0.698500X0.152400X-0.698500X-0.152400X0*%
%ADD30RoundRect,0.102000X1.155700X-1.320800X1.155700X1.320800X-1.155700X1.320800X-1.155700X-1.320800X0*%
G04 APERTURE END LIST*
D10*
%TO.C,U1*%
X136202000Y-84714000D02*
X136204000Y-84714000D01*
X136207000Y-84715000D01*
X136209000Y-84715000D01*
X136212000Y-84716000D01*
X136214000Y-84717000D01*
X136217000Y-84718000D01*
X136219000Y-84720000D01*
X136221000Y-84721000D01*
X136223000Y-84723000D01*
X136225000Y-84724000D01*
X136227000Y-84726000D01*
X136229000Y-84728000D01*
X136231000Y-84730000D01*
X136233000Y-84732000D01*
X136234000Y-84734000D01*
X136236000Y-84736000D01*
X136237000Y-84738000D01*
X136239000Y-84740000D01*
X136240000Y-84743000D01*
X136241000Y-84745000D01*
X136242000Y-84748000D01*
X136242000Y-84750000D01*
X136243000Y-84753000D01*
X136243000Y-84755000D01*
X136244000Y-84758000D01*
X136244000Y-84760000D01*
X136244000Y-84763000D01*
X136244000Y-85053000D01*
X136244000Y-85056000D01*
X136244000Y-85058000D01*
X136243000Y-85061000D01*
X136243000Y-85063000D01*
X136242000Y-85066000D01*
X136242000Y-85068000D01*
X136241000Y-85071000D01*
X136240000Y-85073000D01*
X136239000Y-85076000D01*
X136237000Y-85078000D01*
X136236000Y-85080000D01*
X136234000Y-85082000D01*
X136233000Y-85084000D01*
X136231000Y-85086000D01*
X136229000Y-85088000D01*
X136227000Y-85090000D01*
X136225000Y-85092000D01*
X136223000Y-85093000D01*
X136221000Y-85095000D01*
X136219000Y-85096000D01*
X136217000Y-85098000D01*
X136214000Y-85099000D01*
X136212000Y-85100000D01*
X136209000Y-85101000D01*
X136207000Y-85101000D01*
X136204000Y-85102000D01*
X136202000Y-85102000D01*
X136199000Y-85103000D01*
X136197000Y-85103000D01*
X136194000Y-85103000D01*
X135654000Y-85103000D01*
X135651000Y-85103000D01*
X135649000Y-85103000D01*
X135646000Y-85102000D01*
X135644000Y-85102000D01*
X135641000Y-85101000D01*
X135639000Y-85101000D01*
X135636000Y-85100000D01*
X135634000Y-85099000D01*
X135631000Y-85098000D01*
X135629000Y-85096000D01*
X135627000Y-85095000D01*
X135625000Y-85093000D01*
X135623000Y-85092000D01*
X135621000Y-85090000D01*
X135619000Y-85088000D01*
X135617000Y-85086000D01*
X135615000Y-85084000D01*
X135614000Y-85082000D01*
X135612000Y-85080000D01*
X135611000Y-85078000D01*
X135609000Y-85076000D01*
X135608000Y-85073000D01*
X135607000Y-85071000D01*
X135606000Y-85068000D01*
X135606000Y-85066000D01*
X135605000Y-85063000D01*
X135605000Y-85061000D01*
X135604000Y-85058000D01*
X135604000Y-85056000D01*
X135604000Y-85053000D01*
X135604000Y-84763000D01*
X135604000Y-84760000D01*
X135604000Y-84758000D01*
X135605000Y-84755000D01*
X135605000Y-84753000D01*
X135606000Y-84750000D01*
X135606000Y-84748000D01*
X135607000Y-84745000D01*
X135608000Y-84743000D01*
X135609000Y-84740000D01*
X135611000Y-84738000D01*
X135612000Y-84736000D01*
X135614000Y-84734000D01*
X135615000Y-84732000D01*
X135617000Y-84730000D01*
X135619000Y-84728000D01*
X135621000Y-84726000D01*
X135623000Y-84724000D01*
X135625000Y-84723000D01*
X135627000Y-84721000D01*
X135629000Y-84720000D01*
X135631000Y-84718000D01*
X135634000Y-84717000D01*
X135636000Y-84716000D01*
X135639000Y-84715000D01*
X135641000Y-84715000D01*
X135644000Y-84714000D01*
X135646000Y-84714000D01*
X135649000Y-84713000D01*
X135651000Y-84713000D01*
X135654000Y-84713000D01*
X136194000Y-84713000D01*
X136197000Y-84713000D01*
X136199000Y-84713000D01*
X136202000Y-84714000D01*
G36*
X136202000Y-84714000D02*
G01*
X136204000Y-84714000D01*
X136207000Y-84715000D01*
X136209000Y-84715000D01*
X136212000Y-84716000D01*
X136214000Y-84717000D01*
X136217000Y-84718000D01*
X136219000Y-84720000D01*
X136221000Y-84721000D01*
X136223000Y-84723000D01*
X136225000Y-84724000D01*
X136227000Y-84726000D01*
X136229000Y-84728000D01*
X136231000Y-84730000D01*
X136233000Y-84732000D01*
X136234000Y-84734000D01*
X136236000Y-84736000D01*
X136237000Y-84738000D01*
X136239000Y-84740000D01*
X136240000Y-84743000D01*
X136241000Y-84745000D01*
X136242000Y-84748000D01*
X136242000Y-84750000D01*
X136243000Y-84753000D01*
X136243000Y-84755000D01*
X136244000Y-84758000D01*
X136244000Y-84760000D01*
X136244000Y-84763000D01*
X136244000Y-85053000D01*
X136244000Y-85056000D01*
X136244000Y-85058000D01*
X136243000Y-85061000D01*
X136243000Y-85063000D01*
X136242000Y-85066000D01*
X136242000Y-85068000D01*
X136241000Y-85071000D01*
X136240000Y-85073000D01*
X136239000Y-85076000D01*
X136237000Y-85078000D01*
X136236000Y-85080000D01*
X136234000Y-85082000D01*
X136233000Y-85084000D01*
X136231000Y-85086000D01*
X136229000Y-85088000D01*
X136227000Y-85090000D01*
X136225000Y-85092000D01*
X136223000Y-85093000D01*
X136221000Y-85095000D01*
X136219000Y-85096000D01*
X136217000Y-85098000D01*
X136214000Y-85099000D01*
X136212000Y-85100000D01*
X136209000Y-85101000D01*
X136207000Y-85101000D01*
X136204000Y-85102000D01*
X136202000Y-85102000D01*
X136199000Y-85103000D01*
X136197000Y-85103000D01*
X136194000Y-85103000D01*
X135654000Y-85103000D01*
X135651000Y-85103000D01*
X135649000Y-85103000D01*
X135646000Y-85102000D01*
X135644000Y-85102000D01*
X135641000Y-85101000D01*
X135639000Y-85101000D01*
X135636000Y-85100000D01*
X135634000Y-85099000D01*
X135631000Y-85098000D01*
X135629000Y-85096000D01*
X135627000Y-85095000D01*
X135625000Y-85093000D01*
X135623000Y-85092000D01*
X135621000Y-85090000D01*
X135619000Y-85088000D01*
X135617000Y-85086000D01*
X135615000Y-85084000D01*
X135614000Y-85082000D01*
X135612000Y-85080000D01*
X135611000Y-85078000D01*
X135609000Y-85076000D01*
X135608000Y-85073000D01*
X135607000Y-85071000D01*
X135606000Y-85068000D01*
X135606000Y-85066000D01*
X135605000Y-85063000D01*
X135605000Y-85061000D01*
X135604000Y-85058000D01*
X135604000Y-85056000D01*
X135604000Y-85053000D01*
X135604000Y-84763000D01*
X135604000Y-84760000D01*
X135604000Y-84758000D01*
X135605000Y-84755000D01*
X135605000Y-84753000D01*
X135606000Y-84750000D01*
X135606000Y-84748000D01*
X135607000Y-84745000D01*
X135608000Y-84743000D01*
X135609000Y-84740000D01*
X135611000Y-84738000D01*
X135612000Y-84736000D01*
X135614000Y-84734000D01*
X135615000Y-84732000D01*
X135617000Y-84730000D01*
X135619000Y-84728000D01*
X135621000Y-84726000D01*
X135623000Y-84724000D01*
X135625000Y-84723000D01*
X135627000Y-84721000D01*
X135629000Y-84720000D01*
X135631000Y-84718000D01*
X135634000Y-84717000D01*
X135636000Y-84716000D01*
X135639000Y-84715000D01*
X135641000Y-84715000D01*
X135644000Y-84714000D01*
X135646000Y-84714000D01*
X135649000Y-84713000D01*
X135651000Y-84713000D01*
X135654000Y-84713000D01*
X136194000Y-84713000D01*
X136197000Y-84713000D01*
X136199000Y-84713000D01*
X136202000Y-84714000D01*
G37*
X136202000Y-85214000D02*
X136204000Y-85214000D01*
X136207000Y-85215000D01*
X136209000Y-85215000D01*
X136212000Y-85216000D01*
X136214000Y-85217000D01*
X136217000Y-85218000D01*
X136219000Y-85220000D01*
X136221000Y-85221000D01*
X136223000Y-85223000D01*
X136225000Y-85224000D01*
X136227000Y-85226000D01*
X136229000Y-85228000D01*
X136231000Y-85230000D01*
X136233000Y-85232000D01*
X136234000Y-85234000D01*
X136236000Y-85236000D01*
X136237000Y-85238000D01*
X136239000Y-85240000D01*
X136240000Y-85243000D01*
X136241000Y-85245000D01*
X136242000Y-85248000D01*
X136242000Y-85250000D01*
X136243000Y-85253000D01*
X136243000Y-85255000D01*
X136244000Y-85258000D01*
X136244000Y-85260000D01*
X136244000Y-85263000D01*
X136244000Y-85553000D01*
X136244000Y-85556000D01*
X136244000Y-85558000D01*
X136243000Y-85561000D01*
X136243000Y-85563000D01*
X136242000Y-85566000D01*
X136242000Y-85568000D01*
X136241000Y-85571000D01*
X136240000Y-85573000D01*
X136239000Y-85576000D01*
X136237000Y-85578000D01*
X136236000Y-85580000D01*
X136234000Y-85582000D01*
X136233000Y-85584000D01*
X136231000Y-85586000D01*
X136229000Y-85588000D01*
X136227000Y-85590000D01*
X136225000Y-85592000D01*
X136223000Y-85593000D01*
X136221000Y-85595000D01*
X136219000Y-85596000D01*
X136217000Y-85598000D01*
X136214000Y-85599000D01*
X136212000Y-85600000D01*
X136209000Y-85601000D01*
X136207000Y-85601000D01*
X136204000Y-85602000D01*
X136202000Y-85602000D01*
X136199000Y-85603000D01*
X136197000Y-85603000D01*
X136194000Y-85603000D01*
X135654000Y-85603000D01*
X135651000Y-85603000D01*
X135649000Y-85603000D01*
X135646000Y-85602000D01*
X135644000Y-85602000D01*
X135641000Y-85601000D01*
X135639000Y-85601000D01*
X135636000Y-85600000D01*
X135634000Y-85599000D01*
X135631000Y-85598000D01*
X135629000Y-85596000D01*
X135627000Y-85595000D01*
X135625000Y-85593000D01*
X135623000Y-85592000D01*
X135621000Y-85590000D01*
X135619000Y-85588000D01*
X135617000Y-85586000D01*
X135615000Y-85584000D01*
X135614000Y-85582000D01*
X135612000Y-85580000D01*
X135611000Y-85578000D01*
X135609000Y-85576000D01*
X135608000Y-85573000D01*
X135607000Y-85571000D01*
X135606000Y-85568000D01*
X135606000Y-85566000D01*
X135605000Y-85563000D01*
X135605000Y-85561000D01*
X135604000Y-85558000D01*
X135604000Y-85556000D01*
X135604000Y-85553000D01*
X135604000Y-85263000D01*
X135604000Y-85260000D01*
X135604000Y-85258000D01*
X135605000Y-85255000D01*
X135605000Y-85253000D01*
X135606000Y-85250000D01*
X135606000Y-85248000D01*
X135607000Y-85245000D01*
X135608000Y-85243000D01*
X135609000Y-85240000D01*
X135611000Y-85238000D01*
X135612000Y-85236000D01*
X135614000Y-85234000D01*
X135615000Y-85232000D01*
X135617000Y-85230000D01*
X135619000Y-85228000D01*
X135621000Y-85226000D01*
X135623000Y-85224000D01*
X135625000Y-85223000D01*
X135627000Y-85221000D01*
X135629000Y-85220000D01*
X135631000Y-85218000D01*
X135634000Y-85217000D01*
X135636000Y-85216000D01*
X135639000Y-85215000D01*
X135641000Y-85215000D01*
X135644000Y-85214000D01*
X135646000Y-85214000D01*
X135649000Y-85213000D01*
X135651000Y-85213000D01*
X135654000Y-85213000D01*
X136194000Y-85213000D01*
X136197000Y-85213000D01*
X136199000Y-85213000D01*
X136202000Y-85214000D01*
G36*
X136202000Y-85214000D02*
G01*
X136204000Y-85214000D01*
X136207000Y-85215000D01*
X136209000Y-85215000D01*
X136212000Y-85216000D01*
X136214000Y-85217000D01*
X136217000Y-85218000D01*
X136219000Y-85220000D01*
X136221000Y-85221000D01*
X136223000Y-85223000D01*
X136225000Y-85224000D01*
X136227000Y-85226000D01*
X136229000Y-85228000D01*
X136231000Y-85230000D01*
X136233000Y-85232000D01*
X136234000Y-85234000D01*
X136236000Y-85236000D01*
X136237000Y-85238000D01*
X136239000Y-85240000D01*
X136240000Y-85243000D01*
X136241000Y-85245000D01*
X136242000Y-85248000D01*
X136242000Y-85250000D01*
X136243000Y-85253000D01*
X136243000Y-85255000D01*
X136244000Y-85258000D01*
X136244000Y-85260000D01*
X136244000Y-85263000D01*
X136244000Y-85553000D01*
X136244000Y-85556000D01*
X136244000Y-85558000D01*
X136243000Y-85561000D01*
X136243000Y-85563000D01*
X136242000Y-85566000D01*
X136242000Y-85568000D01*
X136241000Y-85571000D01*
X136240000Y-85573000D01*
X136239000Y-85576000D01*
X136237000Y-85578000D01*
X136236000Y-85580000D01*
X136234000Y-85582000D01*
X136233000Y-85584000D01*
X136231000Y-85586000D01*
X136229000Y-85588000D01*
X136227000Y-85590000D01*
X136225000Y-85592000D01*
X136223000Y-85593000D01*
X136221000Y-85595000D01*
X136219000Y-85596000D01*
X136217000Y-85598000D01*
X136214000Y-85599000D01*
X136212000Y-85600000D01*
X136209000Y-85601000D01*
X136207000Y-85601000D01*
X136204000Y-85602000D01*
X136202000Y-85602000D01*
X136199000Y-85603000D01*
X136197000Y-85603000D01*
X136194000Y-85603000D01*
X135654000Y-85603000D01*
X135651000Y-85603000D01*
X135649000Y-85603000D01*
X135646000Y-85602000D01*
X135644000Y-85602000D01*
X135641000Y-85601000D01*
X135639000Y-85601000D01*
X135636000Y-85600000D01*
X135634000Y-85599000D01*
X135631000Y-85598000D01*
X135629000Y-85596000D01*
X135627000Y-85595000D01*
X135625000Y-85593000D01*
X135623000Y-85592000D01*
X135621000Y-85590000D01*
X135619000Y-85588000D01*
X135617000Y-85586000D01*
X135615000Y-85584000D01*
X135614000Y-85582000D01*
X135612000Y-85580000D01*
X135611000Y-85578000D01*
X135609000Y-85576000D01*
X135608000Y-85573000D01*
X135607000Y-85571000D01*
X135606000Y-85568000D01*
X135606000Y-85566000D01*
X135605000Y-85563000D01*
X135605000Y-85561000D01*
X135604000Y-85558000D01*
X135604000Y-85556000D01*
X135604000Y-85553000D01*
X135604000Y-85263000D01*
X135604000Y-85260000D01*
X135604000Y-85258000D01*
X135605000Y-85255000D01*
X135605000Y-85253000D01*
X135606000Y-85250000D01*
X135606000Y-85248000D01*
X135607000Y-85245000D01*
X135608000Y-85243000D01*
X135609000Y-85240000D01*
X135611000Y-85238000D01*
X135612000Y-85236000D01*
X135614000Y-85234000D01*
X135615000Y-85232000D01*
X135617000Y-85230000D01*
X135619000Y-85228000D01*
X135621000Y-85226000D01*
X135623000Y-85224000D01*
X135625000Y-85223000D01*
X135627000Y-85221000D01*
X135629000Y-85220000D01*
X135631000Y-85218000D01*
X135634000Y-85217000D01*
X135636000Y-85216000D01*
X135639000Y-85215000D01*
X135641000Y-85215000D01*
X135644000Y-85214000D01*
X135646000Y-85214000D01*
X135649000Y-85213000D01*
X135651000Y-85213000D01*
X135654000Y-85213000D01*
X136194000Y-85213000D01*
X136197000Y-85213000D01*
X136199000Y-85213000D01*
X136202000Y-85214000D01*
G37*
X136202000Y-85714000D02*
X136204000Y-85714000D01*
X136207000Y-85715000D01*
X136209000Y-85715000D01*
X136212000Y-85716000D01*
X136214000Y-85717000D01*
X136217000Y-85718000D01*
X136219000Y-85720000D01*
X136221000Y-85721000D01*
X136223000Y-85723000D01*
X136225000Y-85724000D01*
X136227000Y-85726000D01*
X136229000Y-85728000D01*
X136231000Y-85730000D01*
X136233000Y-85732000D01*
X136234000Y-85734000D01*
X136236000Y-85736000D01*
X136237000Y-85738000D01*
X136239000Y-85740000D01*
X136240000Y-85743000D01*
X136241000Y-85745000D01*
X136242000Y-85748000D01*
X136242000Y-85750000D01*
X136243000Y-85753000D01*
X136243000Y-85755000D01*
X136244000Y-85758000D01*
X136244000Y-85760000D01*
X136244000Y-85763000D01*
X136244000Y-86053000D01*
X136244000Y-86056000D01*
X136244000Y-86058000D01*
X136243000Y-86061000D01*
X136243000Y-86063000D01*
X136242000Y-86066000D01*
X136242000Y-86068000D01*
X136241000Y-86071000D01*
X136240000Y-86073000D01*
X136239000Y-86076000D01*
X136237000Y-86078000D01*
X136236000Y-86080000D01*
X136234000Y-86082000D01*
X136233000Y-86084000D01*
X136231000Y-86086000D01*
X136229000Y-86088000D01*
X136227000Y-86090000D01*
X136225000Y-86092000D01*
X136223000Y-86093000D01*
X136221000Y-86095000D01*
X136219000Y-86096000D01*
X136217000Y-86098000D01*
X136214000Y-86099000D01*
X136212000Y-86100000D01*
X136209000Y-86101000D01*
X136207000Y-86101000D01*
X136204000Y-86102000D01*
X136202000Y-86102000D01*
X136199000Y-86103000D01*
X136197000Y-86103000D01*
X136194000Y-86103000D01*
X135654000Y-86103000D01*
X135651000Y-86103000D01*
X135649000Y-86103000D01*
X135646000Y-86102000D01*
X135644000Y-86102000D01*
X135641000Y-86101000D01*
X135639000Y-86101000D01*
X135636000Y-86100000D01*
X135634000Y-86099000D01*
X135631000Y-86098000D01*
X135629000Y-86096000D01*
X135627000Y-86095000D01*
X135625000Y-86093000D01*
X135623000Y-86092000D01*
X135621000Y-86090000D01*
X135619000Y-86088000D01*
X135617000Y-86086000D01*
X135615000Y-86084000D01*
X135614000Y-86082000D01*
X135612000Y-86080000D01*
X135611000Y-86078000D01*
X135609000Y-86076000D01*
X135608000Y-86073000D01*
X135607000Y-86071000D01*
X135606000Y-86068000D01*
X135606000Y-86066000D01*
X135605000Y-86063000D01*
X135605000Y-86061000D01*
X135604000Y-86058000D01*
X135604000Y-86056000D01*
X135604000Y-86053000D01*
X135604000Y-85763000D01*
X135604000Y-85760000D01*
X135604000Y-85758000D01*
X135605000Y-85755000D01*
X135605000Y-85753000D01*
X135606000Y-85750000D01*
X135606000Y-85748000D01*
X135607000Y-85745000D01*
X135608000Y-85743000D01*
X135609000Y-85740000D01*
X135611000Y-85738000D01*
X135612000Y-85736000D01*
X135614000Y-85734000D01*
X135615000Y-85732000D01*
X135617000Y-85730000D01*
X135619000Y-85728000D01*
X135621000Y-85726000D01*
X135623000Y-85724000D01*
X135625000Y-85723000D01*
X135627000Y-85721000D01*
X135629000Y-85720000D01*
X135631000Y-85718000D01*
X135634000Y-85717000D01*
X135636000Y-85716000D01*
X135639000Y-85715000D01*
X135641000Y-85715000D01*
X135644000Y-85714000D01*
X135646000Y-85714000D01*
X135649000Y-85713000D01*
X135651000Y-85713000D01*
X135654000Y-85713000D01*
X136194000Y-85713000D01*
X136197000Y-85713000D01*
X136199000Y-85713000D01*
X136202000Y-85714000D01*
G36*
X136202000Y-85714000D02*
G01*
X136204000Y-85714000D01*
X136207000Y-85715000D01*
X136209000Y-85715000D01*
X136212000Y-85716000D01*
X136214000Y-85717000D01*
X136217000Y-85718000D01*
X136219000Y-85720000D01*
X136221000Y-85721000D01*
X136223000Y-85723000D01*
X136225000Y-85724000D01*
X136227000Y-85726000D01*
X136229000Y-85728000D01*
X136231000Y-85730000D01*
X136233000Y-85732000D01*
X136234000Y-85734000D01*
X136236000Y-85736000D01*
X136237000Y-85738000D01*
X136239000Y-85740000D01*
X136240000Y-85743000D01*
X136241000Y-85745000D01*
X136242000Y-85748000D01*
X136242000Y-85750000D01*
X136243000Y-85753000D01*
X136243000Y-85755000D01*
X136244000Y-85758000D01*
X136244000Y-85760000D01*
X136244000Y-85763000D01*
X136244000Y-86053000D01*
X136244000Y-86056000D01*
X136244000Y-86058000D01*
X136243000Y-86061000D01*
X136243000Y-86063000D01*
X136242000Y-86066000D01*
X136242000Y-86068000D01*
X136241000Y-86071000D01*
X136240000Y-86073000D01*
X136239000Y-86076000D01*
X136237000Y-86078000D01*
X136236000Y-86080000D01*
X136234000Y-86082000D01*
X136233000Y-86084000D01*
X136231000Y-86086000D01*
X136229000Y-86088000D01*
X136227000Y-86090000D01*
X136225000Y-86092000D01*
X136223000Y-86093000D01*
X136221000Y-86095000D01*
X136219000Y-86096000D01*
X136217000Y-86098000D01*
X136214000Y-86099000D01*
X136212000Y-86100000D01*
X136209000Y-86101000D01*
X136207000Y-86101000D01*
X136204000Y-86102000D01*
X136202000Y-86102000D01*
X136199000Y-86103000D01*
X136197000Y-86103000D01*
X136194000Y-86103000D01*
X135654000Y-86103000D01*
X135651000Y-86103000D01*
X135649000Y-86103000D01*
X135646000Y-86102000D01*
X135644000Y-86102000D01*
X135641000Y-86101000D01*
X135639000Y-86101000D01*
X135636000Y-86100000D01*
X135634000Y-86099000D01*
X135631000Y-86098000D01*
X135629000Y-86096000D01*
X135627000Y-86095000D01*
X135625000Y-86093000D01*
X135623000Y-86092000D01*
X135621000Y-86090000D01*
X135619000Y-86088000D01*
X135617000Y-86086000D01*
X135615000Y-86084000D01*
X135614000Y-86082000D01*
X135612000Y-86080000D01*
X135611000Y-86078000D01*
X135609000Y-86076000D01*
X135608000Y-86073000D01*
X135607000Y-86071000D01*
X135606000Y-86068000D01*
X135606000Y-86066000D01*
X135605000Y-86063000D01*
X135605000Y-86061000D01*
X135604000Y-86058000D01*
X135604000Y-86056000D01*
X135604000Y-86053000D01*
X135604000Y-85763000D01*
X135604000Y-85760000D01*
X135604000Y-85758000D01*
X135605000Y-85755000D01*
X135605000Y-85753000D01*
X135606000Y-85750000D01*
X135606000Y-85748000D01*
X135607000Y-85745000D01*
X135608000Y-85743000D01*
X135609000Y-85740000D01*
X135611000Y-85738000D01*
X135612000Y-85736000D01*
X135614000Y-85734000D01*
X135615000Y-85732000D01*
X135617000Y-85730000D01*
X135619000Y-85728000D01*
X135621000Y-85726000D01*
X135623000Y-85724000D01*
X135625000Y-85723000D01*
X135627000Y-85721000D01*
X135629000Y-85720000D01*
X135631000Y-85718000D01*
X135634000Y-85717000D01*
X135636000Y-85716000D01*
X135639000Y-85715000D01*
X135641000Y-85715000D01*
X135644000Y-85714000D01*
X135646000Y-85714000D01*
X135649000Y-85713000D01*
X135651000Y-85713000D01*
X135654000Y-85713000D01*
X136194000Y-85713000D01*
X136197000Y-85713000D01*
X136199000Y-85713000D01*
X136202000Y-85714000D01*
G37*
X136202000Y-86214000D02*
X136204000Y-86214000D01*
X136207000Y-86215000D01*
X136209000Y-86215000D01*
X136212000Y-86216000D01*
X136214000Y-86217000D01*
X136217000Y-86218000D01*
X136219000Y-86220000D01*
X136221000Y-86221000D01*
X136223000Y-86223000D01*
X136225000Y-86224000D01*
X136227000Y-86226000D01*
X136229000Y-86228000D01*
X136231000Y-86230000D01*
X136233000Y-86232000D01*
X136234000Y-86234000D01*
X136236000Y-86236000D01*
X136237000Y-86238000D01*
X136239000Y-86240000D01*
X136240000Y-86243000D01*
X136241000Y-86245000D01*
X136242000Y-86248000D01*
X136242000Y-86250000D01*
X136243000Y-86253000D01*
X136243000Y-86255000D01*
X136244000Y-86258000D01*
X136244000Y-86260000D01*
X136244000Y-86263000D01*
X136244000Y-86553000D01*
X136244000Y-86556000D01*
X136244000Y-86558000D01*
X136243000Y-86561000D01*
X136243000Y-86563000D01*
X136242000Y-86566000D01*
X136242000Y-86568000D01*
X136241000Y-86571000D01*
X136240000Y-86573000D01*
X136239000Y-86576000D01*
X136237000Y-86578000D01*
X136236000Y-86580000D01*
X136234000Y-86582000D01*
X136233000Y-86584000D01*
X136231000Y-86586000D01*
X136229000Y-86588000D01*
X136227000Y-86590000D01*
X136225000Y-86592000D01*
X136223000Y-86593000D01*
X136221000Y-86595000D01*
X136219000Y-86596000D01*
X136217000Y-86598000D01*
X136214000Y-86599000D01*
X136212000Y-86600000D01*
X136209000Y-86601000D01*
X136207000Y-86601000D01*
X136204000Y-86602000D01*
X136202000Y-86602000D01*
X136199000Y-86603000D01*
X136197000Y-86603000D01*
X136194000Y-86603000D01*
X135654000Y-86603000D01*
X135651000Y-86603000D01*
X135649000Y-86603000D01*
X135646000Y-86602000D01*
X135644000Y-86602000D01*
X135641000Y-86601000D01*
X135639000Y-86601000D01*
X135636000Y-86600000D01*
X135634000Y-86599000D01*
X135631000Y-86598000D01*
X135629000Y-86596000D01*
X135627000Y-86595000D01*
X135625000Y-86593000D01*
X135623000Y-86592000D01*
X135621000Y-86590000D01*
X135619000Y-86588000D01*
X135617000Y-86586000D01*
X135615000Y-86584000D01*
X135614000Y-86582000D01*
X135612000Y-86580000D01*
X135611000Y-86578000D01*
X135609000Y-86576000D01*
X135608000Y-86573000D01*
X135607000Y-86571000D01*
X135606000Y-86568000D01*
X135606000Y-86566000D01*
X135605000Y-86563000D01*
X135605000Y-86561000D01*
X135604000Y-86558000D01*
X135604000Y-86556000D01*
X135604000Y-86553000D01*
X135604000Y-86263000D01*
X135604000Y-86260000D01*
X135604000Y-86258000D01*
X135605000Y-86255000D01*
X135605000Y-86253000D01*
X135606000Y-86250000D01*
X135606000Y-86248000D01*
X135607000Y-86245000D01*
X135608000Y-86243000D01*
X135609000Y-86240000D01*
X135611000Y-86238000D01*
X135612000Y-86236000D01*
X135614000Y-86234000D01*
X135615000Y-86232000D01*
X135617000Y-86230000D01*
X135619000Y-86228000D01*
X135621000Y-86226000D01*
X135623000Y-86224000D01*
X135625000Y-86223000D01*
X135627000Y-86221000D01*
X135629000Y-86220000D01*
X135631000Y-86218000D01*
X135634000Y-86217000D01*
X135636000Y-86216000D01*
X135639000Y-86215000D01*
X135641000Y-86215000D01*
X135644000Y-86214000D01*
X135646000Y-86214000D01*
X135649000Y-86213000D01*
X135651000Y-86213000D01*
X135654000Y-86213000D01*
X136194000Y-86213000D01*
X136197000Y-86213000D01*
X136199000Y-86213000D01*
X136202000Y-86214000D01*
G36*
X136202000Y-86214000D02*
G01*
X136204000Y-86214000D01*
X136207000Y-86215000D01*
X136209000Y-86215000D01*
X136212000Y-86216000D01*
X136214000Y-86217000D01*
X136217000Y-86218000D01*
X136219000Y-86220000D01*
X136221000Y-86221000D01*
X136223000Y-86223000D01*
X136225000Y-86224000D01*
X136227000Y-86226000D01*
X136229000Y-86228000D01*
X136231000Y-86230000D01*
X136233000Y-86232000D01*
X136234000Y-86234000D01*
X136236000Y-86236000D01*
X136237000Y-86238000D01*
X136239000Y-86240000D01*
X136240000Y-86243000D01*
X136241000Y-86245000D01*
X136242000Y-86248000D01*
X136242000Y-86250000D01*
X136243000Y-86253000D01*
X136243000Y-86255000D01*
X136244000Y-86258000D01*
X136244000Y-86260000D01*
X136244000Y-86263000D01*
X136244000Y-86553000D01*
X136244000Y-86556000D01*
X136244000Y-86558000D01*
X136243000Y-86561000D01*
X136243000Y-86563000D01*
X136242000Y-86566000D01*
X136242000Y-86568000D01*
X136241000Y-86571000D01*
X136240000Y-86573000D01*
X136239000Y-86576000D01*
X136237000Y-86578000D01*
X136236000Y-86580000D01*
X136234000Y-86582000D01*
X136233000Y-86584000D01*
X136231000Y-86586000D01*
X136229000Y-86588000D01*
X136227000Y-86590000D01*
X136225000Y-86592000D01*
X136223000Y-86593000D01*
X136221000Y-86595000D01*
X136219000Y-86596000D01*
X136217000Y-86598000D01*
X136214000Y-86599000D01*
X136212000Y-86600000D01*
X136209000Y-86601000D01*
X136207000Y-86601000D01*
X136204000Y-86602000D01*
X136202000Y-86602000D01*
X136199000Y-86603000D01*
X136197000Y-86603000D01*
X136194000Y-86603000D01*
X135654000Y-86603000D01*
X135651000Y-86603000D01*
X135649000Y-86603000D01*
X135646000Y-86602000D01*
X135644000Y-86602000D01*
X135641000Y-86601000D01*
X135639000Y-86601000D01*
X135636000Y-86600000D01*
X135634000Y-86599000D01*
X135631000Y-86598000D01*
X135629000Y-86596000D01*
X135627000Y-86595000D01*
X135625000Y-86593000D01*
X135623000Y-86592000D01*
X135621000Y-86590000D01*
X135619000Y-86588000D01*
X135617000Y-86586000D01*
X135615000Y-86584000D01*
X135614000Y-86582000D01*
X135612000Y-86580000D01*
X135611000Y-86578000D01*
X135609000Y-86576000D01*
X135608000Y-86573000D01*
X135607000Y-86571000D01*
X135606000Y-86568000D01*
X135606000Y-86566000D01*
X135605000Y-86563000D01*
X135605000Y-86561000D01*
X135604000Y-86558000D01*
X135604000Y-86556000D01*
X135604000Y-86553000D01*
X135604000Y-86263000D01*
X135604000Y-86260000D01*
X135604000Y-86258000D01*
X135605000Y-86255000D01*
X135605000Y-86253000D01*
X135606000Y-86250000D01*
X135606000Y-86248000D01*
X135607000Y-86245000D01*
X135608000Y-86243000D01*
X135609000Y-86240000D01*
X135611000Y-86238000D01*
X135612000Y-86236000D01*
X135614000Y-86234000D01*
X135615000Y-86232000D01*
X135617000Y-86230000D01*
X135619000Y-86228000D01*
X135621000Y-86226000D01*
X135623000Y-86224000D01*
X135625000Y-86223000D01*
X135627000Y-86221000D01*
X135629000Y-86220000D01*
X135631000Y-86218000D01*
X135634000Y-86217000D01*
X135636000Y-86216000D01*
X135639000Y-86215000D01*
X135641000Y-86215000D01*
X135644000Y-86214000D01*
X135646000Y-86214000D01*
X135649000Y-86213000D01*
X135651000Y-86213000D01*
X135654000Y-86213000D01*
X136194000Y-86213000D01*
X136197000Y-86213000D01*
X136199000Y-86213000D01*
X136202000Y-86214000D01*
G37*
X136202000Y-86714000D02*
X136204000Y-86714000D01*
X136207000Y-86715000D01*
X136209000Y-86715000D01*
X136212000Y-86716000D01*
X136214000Y-86717000D01*
X136217000Y-86718000D01*
X136219000Y-86720000D01*
X136221000Y-86721000D01*
X136223000Y-86723000D01*
X136225000Y-86724000D01*
X136227000Y-86726000D01*
X136229000Y-86728000D01*
X136231000Y-86730000D01*
X136233000Y-86732000D01*
X136234000Y-86734000D01*
X136236000Y-86736000D01*
X136237000Y-86738000D01*
X136239000Y-86740000D01*
X136240000Y-86743000D01*
X136241000Y-86745000D01*
X136242000Y-86748000D01*
X136242000Y-86750000D01*
X136243000Y-86753000D01*
X136243000Y-86755000D01*
X136244000Y-86758000D01*
X136244000Y-86760000D01*
X136244000Y-86763000D01*
X136244000Y-87053000D01*
X136244000Y-87056000D01*
X136244000Y-87058000D01*
X136243000Y-87061000D01*
X136243000Y-87063000D01*
X136242000Y-87066000D01*
X136242000Y-87068000D01*
X136241000Y-87071000D01*
X136240000Y-87073000D01*
X136239000Y-87076000D01*
X136237000Y-87078000D01*
X136236000Y-87080000D01*
X136234000Y-87082000D01*
X136233000Y-87084000D01*
X136231000Y-87086000D01*
X136229000Y-87088000D01*
X136227000Y-87090000D01*
X136225000Y-87092000D01*
X136223000Y-87093000D01*
X136221000Y-87095000D01*
X136219000Y-87096000D01*
X136217000Y-87098000D01*
X136214000Y-87099000D01*
X136212000Y-87100000D01*
X136209000Y-87101000D01*
X136207000Y-87101000D01*
X136204000Y-87102000D01*
X136202000Y-87102000D01*
X136199000Y-87103000D01*
X136197000Y-87103000D01*
X136194000Y-87103000D01*
X135654000Y-87103000D01*
X135651000Y-87103000D01*
X135649000Y-87103000D01*
X135646000Y-87102000D01*
X135644000Y-87102000D01*
X135641000Y-87101000D01*
X135639000Y-87101000D01*
X135636000Y-87100000D01*
X135634000Y-87099000D01*
X135631000Y-87098000D01*
X135629000Y-87096000D01*
X135627000Y-87095000D01*
X135625000Y-87093000D01*
X135623000Y-87092000D01*
X135621000Y-87090000D01*
X135619000Y-87088000D01*
X135617000Y-87086000D01*
X135615000Y-87084000D01*
X135614000Y-87082000D01*
X135612000Y-87080000D01*
X135611000Y-87078000D01*
X135609000Y-87076000D01*
X135608000Y-87073000D01*
X135607000Y-87071000D01*
X135606000Y-87068000D01*
X135606000Y-87066000D01*
X135605000Y-87063000D01*
X135605000Y-87061000D01*
X135604000Y-87058000D01*
X135604000Y-87056000D01*
X135604000Y-87053000D01*
X135604000Y-86763000D01*
X135604000Y-86760000D01*
X135604000Y-86758000D01*
X135605000Y-86755000D01*
X135605000Y-86753000D01*
X135606000Y-86750000D01*
X135606000Y-86748000D01*
X135607000Y-86745000D01*
X135608000Y-86743000D01*
X135609000Y-86740000D01*
X135611000Y-86738000D01*
X135612000Y-86736000D01*
X135614000Y-86734000D01*
X135615000Y-86732000D01*
X135617000Y-86730000D01*
X135619000Y-86728000D01*
X135621000Y-86726000D01*
X135623000Y-86724000D01*
X135625000Y-86723000D01*
X135627000Y-86721000D01*
X135629000Y-86720000D01*
X135631000Y-86718000D01*
X135634000Y-86717000D01*
X135636000Y-86716000D01*
X135639000Y-86715000D01*
X135641000Y-86715000D01*
X135644000Y-86714000D01*
X135646000Y-86714000D01*
X135649000Y-86713000D01*
X135651000Y-86713000D01*
X135654000Y-86713000D01*
X136194000Y-86713000D01*
X136197000Y-86713000D01*
X136199000Y-86713000D01*
X136202000Y-86714000D01*
G36*
X136202000Y-86714000D02*
G01*
X136204000Y-86714000D01*
X136207000Y-86715000D01*
X136209000Y-86715000D01*
X136212000Y-86716000D01*
X136214000Y-86717000D01*
X136217000Y-86718000D01*
X136219000Y-86720000D01*
X136221000Y-86721000D01*
X136223000Y-86723000D01*
X136225000Y-86724000D01*
X136227000Y-86726000D01*
X136229000Y-86728000D01*
X136231000Y-86730000D01*
X136233000Y-86732000D01*
X136234000Y-86734000D01*
X136236000Y-86736000D01*
X136237000Y-86738000D01*
X136239000Y-86740000D01*
X136240000Y-86743000D01*
X136241000Y-86745000D01*
X136242000Y-86748000D01*
X136242000Y-86750000D01*
X136243000Y-86753000D01*
X136243000Y-86755000D01*
X136244000Y-86758000D01*
X136244000Y-86760000D01*
X136244000Y-86763000D01*
X136244000Y-87053000D01*
X136244000Y-87056000D01*
X136244000Y-87058000D01*
X136243000Y-87061000D01*
X136243000Y-87063000D01*
X136242000Y-87066000D01*
X136242000Y-87068000D01*
X136241000Y-87071000D01*
X136240000Y-87073000D01*
X136239000Y-87076000D01*
X136237000Y-87078000D01*
X136236000Y-87080000D01*
X136234000Y-87082000D01*
X136233000Y-87084000D01*
X136231000Y-87086000D01*
X136229000Y-87088000D01*
X136227000Y-87090000D01*
X136225000Y-87092000D01*
X136223000Y-87093000D01*
X136221000Y-87095000D01*
X136219000Y-87096000D01*
X136217000Y-87098000D01*
X136214000Y-87099000D01*
X136212000Y-87100000D01*
X136209000Y-87101000D01*
X136207000Y-87101000D01*
X136204000Y-87102000D01*
X136202000Y-87102000D01*
X136199000Y-87103000D01*
X136197000Y-87103000D01*
X136194000Y-87103000D01*
X135654000Y-87103000D01*
X135651000Y-87103000D01*
X135649000Y-87103000D01*
X135646000Y-87102000D01*
X135644000Y-87102000D01*
X135641000Y-87101000D01*
X135639000Y-87101000D01*
X135636000Y-87100000D01*
X135634000Y-87099000D01*
X135631000Y-87098000D01*
X135629000Y-87096000D01*
X135627000Y-87095000D01*
X135625000Y-87093000D01*
X135623000Y-87092000D01*
X135621000Y-87090000D01*
X135619000Y-87088000D01*
X135617000Y-87086000D01*
X135615000Y-87084000D01*
X135614000Y-87082000D01*
X135612000Y-87080000D01*
X135611000Y-87078000D01*
X135609000Y-87076000D01*
X135608000Y-87073000D01*
X135607000Y-87071000D01*
X135606000Y-87068000D01*
X135606000Y-87066000D01*
X135605000Y-87063000D01*
X135605000Y-87061000D01*
X135604000Y-87058000D01*
X135604000Y-87056000D01*
X135604000Y-87053000D01*
X135604000Y-86763000D01*
X135604000Y-86760000D01*
X135604000Y-86758000D01*
X135605000Y-86755000D01*
X135605000Y-86753000D01*
X135606000Y-86750000D01*
X135606000Y-86748000D01*
X135607000Y-86745000D01*
X135608000Y-86743000D01*
X135609000Y-86740000D01*
X135611000Y-86738000D01*
X135612000Y-86736000D01*
X135614000Y-86734000D01*
X135615000Y-86732000D01*
X135617000Y-86730000D01*
X135619000Y-86728000D01*
X135621000Y-86726000D01*
X135623000Y-86724000D01*
X135625000Y-86723000D01*
X135627000Y-86721000D01*
X135629000Y-86720000D01*
X135631000Y-86718000D01*
X135634000Y-86717000D01*
X135636000Y-86716000D01*
X135639000Y-86715000D01*
X135641000Y-86715000D01*
X135644000Y-86714000D01*
X135646000Y-86714000D01*
X135649000Y-86713000D01*
X135651000Y-86713000D01*
X135654000Y-86713000D01*
X136194000Y-86713000D01*
X136197000Y-86713000D01*
X136199000Y-86713000D01*
X136202000Y-86714000D01*
G37*
X136202000Y-87214000D02*
X136204000Y-87214000D01*
X136207000Y-87215000D01*
X136209000Y-87215000D01*
X136212000Y-87216000D01*
X136214000Y-87217000D01*
X136217000Y-87218000D01*
X136219000Y-87220000D01*
X136221000Y-87221000D01*
X136223000Y-87223000D01*
X136225000Y-87224000D01*
X136227000Y-87226000D01*
X136229000Y-87228000D01*
X136231000Y-87230000D01*
X136233000Y-87232000D01*
X136234000Y-87234000D01*
X136236000Y-87236000D01*
X136237000Y-87238000D01*
X136239000Y-87240000D01*
X136240000Y-87243000D01*
X136241000Y-87245000D01*
X136242000Y-87248000D01*
X136242000Y-87250000D01*
X136243000Y-87253000D01*
X136243000Y-87255000D01*
X136244000Y-87258000D01*
X136244000Y-87260000D01*
X136244000Y-87263000D01*
X136244000Y-87553000D01*
X136244000Y-87556000D01*
X136244000Y-87558000D01*
X136243000Y-87561000D01*
X136243000Y-87563000D01*
X136242000Y-87566000D01*
X136242000Y-87568000D01*
X136241000Y-87571000D01*
X136240000Y-87573000D01*
X136239000Y-87576000D01*
X136237000Y-87578000D01*
X136236000Y-87580000D01*
X136234000Y-87582000D01*
X136233000Y-87584000D01*
X136231000Y-87586000D01*
X136229000Y-87588000D01*
X136227000Y-87590000D01*
X136225000Y-87592000D01*
X136223000Y-87593000D01*
X136221000Y-87595000D01*
X136219000Y-87596000D01*
X136217000Y-87598000D01*
X136214000Y-87599000D01*
X136212000Y-87600000D01*
X136209000Y-87601000D01*
X136207000Y-87601000D01*
X136204000Y-87602000D01*
X136202000Y-87602000D01*
X136199000Y-87603000D01*
X136197000Y-87603000D01*
X136194000Y-87603000D01*
X135654000Y-87603000D01*
X135651000Y-87603000D01*
X135649000Y-87603000D01*
X135646000Y-87602000D01*
X135644000Y-87602000D01*
X135641000Y-87601000D01*
X135639000Y-87601000D01*
X135636000Y-87600000D01*
X135634000Y-87599000D01*
X135631000Y-87598000D01*
X135629000Y-87596000D01*
X135627000Y-87595000D01*
X135625000Y-87593000D01*
X135623000Y-87592000D01*
X135621000Y-87590000D01*
X135619000Y-87588000D01*
X135617000Y-87586000D01*
X135615000Y-87584000D01*
X135614000Y-87582000D01*
X135612000Y-87580000D01*
X135611000Y-87578000D01*
X135609000Y-87576000D01*
X135608000Y-87573000D01*
X135607000Y-87571000D01*
X135606000Y-87568000D01*
X135606000Y-87566000D01*
X135605000Y-87563000D01*
X135605000Y-87561000D01*
X135604000Y-87558000D01*
X135604000Y-87556000D01*
X135604000Y-87553000D01*
X135604000Y-87263000D01*
X135604000Y-87260000D01*
X135604000Y-87258000D01*
X135605000Y-87255000D01*
X135605000Y-87253000D01*
X135606000Y-87250000D01*
X135606000Y-87248000D01*
X135607000Y-87245000D01*
X135608000Y-87243000D01*
X135609000Y-87240000D01*
X135611000Y-87238000D01*
X135612000Y-87236000D01*
X135614000Y-87234000D01*
X135615000Y-87232000D01*
X135617000Y-87230000D01*
X135619000Y-87228000D01*
X135621000Y-87226000D01*
X135623000Y-87224000D01*
X135625000Y-87223000D01*
X135627000Y-87221000D01*
X135629000Y-87220000D01*
X135631000Y-87218000D01*
X135634000Y-87217000D01*
X135636000Y-87216000D01*
X135639000Y-87215000D01*
X135641000Y-87215000D01*
X135644000Y-87214000D01*
X135646000Y-87214000D01*
X135649000Y-87213000D01*
X135651000Y-87213000D01*
X135654000Y-87213000D01*
X136194000Y-87213000D01*
X136197000Y-87213000D01*
X136199000Y-87213000D01*
X136202000Y-87214000D01*
G36*
X136202000Y-87214000D02*
G01*
X136204000Y-87214000D01*
X136207000Y-87215000D01*
X136209000Y-87215000D01*
X136212000Y-87216000D01*
X136214000Y-87217000D01*
X136217000Y-87218000D01*
X136219000Y-87220000D01*
X136221000Y-87221000D01*
X136223000Y-87223000D01*
X136225000Y-87224000D01*
X136227000Y-87226000D01*
X136229000Y-87228000D01*
X136231000Y-87230000D01*
X136233000Y-87232000D01*
X136234000Y-87234000D01*
X136236000Y-87236000D01*
X136237000Y-87238000D01*
X136239000Y-87240000D01*
X136240000Y-87243000D01*
X136241000Y-87245000D01*
X136242000Y-87248000D01*
X136242000Y-87250000D01*
X136243000Y-87253000D01*
X136243000Y-87255000D01*
X136244000Y-87258000D01*
X136244000Y-87260000D01*
X136244000Y-87263000D01*
X136244000Y-87553000D01*
X136244000Y-87556000D01*
X136244000Y-87558000D01*
X136243000Y-87561000D01*
X136243000Y-87563000D01*
X136242000Y-87566000D01*
X136242000Y-87568000D01*
X136241000Y-87571000D01*
X136240000Y-87573000D01*
X136239000Y-87576000D01*
X136237000Y-87578000D01*
X136236000Y-87580000D01*
X136234000Y-87582000D01*
X136233000Y-87584000D01*
X136231000Y-87586000D01*
X136229000Y-87588000D01*
X136227000Y-87590000D01*
X136225000Y-87592000D01*
X136223000Y-87593000D01*
X136221000Y-87595000D01*
X136219000Y-87596000D01*
X136217000Y-87598000D01*
X136214000Y-87599000D01*
X136212000Y-87600000D01*
X136209000Y-87601000D01*
X136207000Y-87601000D01*
X136204000Y-87602000D01*
X136202000Y-87602000D01*
X136199000Y-87603000D01*
X136197000Y-87603000D01*
X136194000Y-87603000D01*
X135654000Y-87603000D01*
X135651000Y-87603000D01*
X135649000Y-87603000D01*
X135646000Y-87602000D01*
X135644000Y-87602000D01*
X135641000Y-87601000D01*
X135639000Y-87601000D01*
X135636000Y-87600000D01*
X135634000Y-87599000D01*
X135631000Y-87598000D01*
X135629000Y-87596000D01*
X135627000Y-87595000D01*
X135625000Y-87593000D01*
X135623000Y-87592000D01*
X135621000Y-87590000D01*
X135619000Y-87588000D01*
X135617000Y-87586000D01*
X135615000Y-87584000D01*
X135614000Y-87582000D01*
X135612000Y-87580000D01*
X135611000Y-87578000D01*
X135609000Y-87576000D01*
X135608000Y-87573000D01*
X135607000Y-87571000D01*
X135606000Y-87568000D01*
X135606000Y-87566000D01*
X135605000Y-87563000D01*
X135605000Y-87561000D01*
X135604000Y-87558000D01*
X135604000Y-87556000D01*
X135604000Y-87553000D01*
X135604000Y-87263000D01*
X135604000Y-87260000D01*
X135604000Y-87258000D01*
X135605000Y-87255000D01*
X135605000Y-87253000D01*
X135606000Y-87250000D01*
X135606000Y-87248000D01*
X135607000Y-87245000D01*
X135608000Y-87243000D01*
X135609000Y-87240000D01*
X135611000Y-87238000D01*
X135612000Y-87236000D01*
X135614000Y-87234000D01*
X135615000Y-87232000D01*
X135617000Y-87230000D01*
X135619000Y-87228000D01*
X135621000Y-87226000D01*
X135623000Y-87224000D01*
X135625000Y-87223000D01*
X135627000Y-87221000D01*
X135629000Y-87220000D01*
X135631000Y-87218000D01*
X135634000Y-87217000D01*
X135636000Y-87216000D01*
X135639000Y-87215000D01*
X135641000Y-87215000D01*
X135644000Y-87214000D01*
X135646000Y-87214000D01*
X135649000Y-87213000D01*
X135651000Y-87213000D01*
X135654000Y-87213000D01*
X136194000Y-87213000D01*
X136197000Y-87213000D01*
X136199000Y-87213000D01*
X136202000Y-87214000D01*
G37*
X137352000Y-85089000D02*
X137354000Y-85089000D01*
X137357000Y-85090000D01*
X137359000Y-85090000D01*
X137362000Y-85091000D01*
X137364000Y-85092000D01*
X137367000Y-85093000D01*
X137369000Y-85095000D01*
X137371000Y-85096000D01*
X137373000Y-85098000D01*
X137375000Y-85099000D01*
X137377000Y-85101000D01*
X137379000Y-85103000D01*
X137381000Y-85105000D01*
X137383000Y-85107000D01*
X137384000Y-85109000D01*
X137386000Y-85111000D01*
X137387000Y-85113000D01*
X137389000Y-85115000D01*
X137390000Y-85118000D01*
X137391000Y-85120000D01*
X137392000Y-85123000D01*
X137392000Y-85125000D01*
X137393000Y-85128000D01*
X137393000Y-85130000D01*
X137394000Y-85133000D01*
X137394000Y-85135000D01*
X137394000Y-85138000D01*
X137394000Y-87178000D01*
X137394000Y-87181000D01*
X137394000Y-87183000D01*
X137393000Y-87186000D01*
X137393000Y-87188000D01*
X137392000Y-87191000D01*
X137392000Y-87193000D01*
X137391000Y-87196000D01*
X137390000Y-87198000D01*
X137389000Y-87201000D01*
X137387000Y-87203000D01*
X137386000Y-87205000D01*
X137384000Y-87207000D01*
X137383000Y-87209000D01*
X137381000Y-87211000D01*
X137379000Y-87213000D01*
X137377000Y-87215000D01*
X137375000Y-87217000D01*
X137373000Y-87218000D01*
X137371000Y-87220000D01*
X137369000Y-87221000D01*
X137367000Y-87223000D01*
X137364000Y-87224000D01*
X137362000Y-87225000D01*
X137359000Y-87226000D01*
X137357000Y-87226000D01*
X137354000Y-87227000D01*
X137352000Y-87227000D01*
X137349000Y-87228000D01*
X137347000Y-87228000D01*
X137344000Y-87228000D01*
X136404000Y-87228000D01*
X136401000Y-87228000D01*
X136399000Y-87228000D01*
X136396000Y-87227000D01*
X136394000Y-87227000D01*
X136391000Y-87226000D01*
X136389000Y-87226000D01*
X136386000Y-87225000D01*
X136384000Y-87224000D01*
X136381000Y-87223000D01*
X136379000Y-87221000D01*
X136377000Y-87220000D01*
X136375000Y-87218000D01*
X136373000Y-87217000D01*
X136371000Y-87215000D01*
X136369000Y-87213000D01*
X136367000Y-87211000D01*
X136365000Y-87209000D01*
X136364000Y-87207000D01*
X136362000Y-87205000D01*
X136361000Y-87203000D01*
X136359000Y-87201000D01*
X136358000Y-87198000D01*
X136357000Y-87196000D01*
X136356000Y-87193000D01*
X136356000Y-87191000D01*
X136355000Y-87188000D01*
X136355000Y-87186000D01*
X136354000Y-87183000D01*
X136354000Y-87181000D01*
X136354000Y-87178000D01*
X136354000Y-85138000D01*
X136354000Y-85135000D01*
X136354000Y-85133000D01*
X136355000Y-85130000D01*
X136355000Y-85128000D01*
X136356000Y-85125000D01*
X136356000Y-85123000D01*
X136357000Y-85120000D01*
X136358000Y-85118000D01*
X136359000Y-85115000D01*
X136361000Y-85113000D01*
X136362000Y-85111000D01*
X136364000Y-85109000D01*
X136365000Y-85107000D01*
X136367000Y-85105000D01*
X136369000Y-85103000D01*
X136371000Y-85101000D01*
X136373000Y-85099000D01*
X136375000Y-85098000D01*
X136377000Y-85096000D01*
X136379000Y-85095000D01*
X136381000Y-85093000D01*
X136384000Y-85092000D01*
X136386000Y-85091000D01*
X136389000Y-85090000D01*
X136391000Y-85090000D01*
X136394000Y-85089000D01*
X136396000Y-85089000D01*
X136399000Y-85088000D01*
X136401000Y-85088000D01*
X136404000Y-85088000D01*
X137344000Y-85088000D01*
X137347000Y-85088000D01*
X137349000Y-85088000D01*
X137352000Y-85089000D01*
G36*
X137352000Y-85089000D02*
G01*
X137354000Y-85089000D01*
X137357000Y-85090000D01*
X137359000Y-85090000D01*
X137362000Y-85091000D01*
X137364000Y-85092000D01*
X137367000Y-85093000D01*
X137369000Y-85095000D01*
X137371000Y-85096000D01*
X137373000Y-85098000D01*
X137375000Y-85099000D01*
X137377000Y-85101000D01*
X137379000Y-85103000D01*
X137381000Y-85105000D01*
X137383000Y-85107000D01*
X137384000Y-85109000D01*
X137386000Y-85111000D01*
X137387000Y-85113000D01*
X137389000Y-85115000D01*
X137390000Y-85118000D01*
X137391000Y-85120000D01*
X137392000Y-85123000D01*
X137392000Y-85125000D01*
X137393000Y-85128000D01*
X137393000Y-85130000D01*
X137394000Y-85133000D01*
X137394000Y-85135000D01*
X137394000Y-85138000D01*
X137394000Y-87178000D01*
X137394000Y-87181000D01*
X137394000Y-87183000D01*
X137393000Y-87186000D01*
X137393000Y-87188000D01*
X137392000Y-87191000D01*
X137392000Y-87193000D01*
X137391000Y-87196000D01*
X137390000Y-87198000D01*
X137389000Y-87201000D01*
X137387000Y-87203000D01*
X137386000Y-87205000D01*
X137384000Y-87207000D01*
X137383000Y-87209000D01*
X137381000Y-87211000D01*
X137379000Y-87213000D01*
X137377000Y-87215000D01*
X137375000Y-87217000D01*
X137373000Y-87218000D01*
X137371000Y-87220000D01*
X137369000Y-87221000D01*
X137367000Y-87223000D01*
X137364000Y-87224000D01*
X137362000Y-87225000D01*
X137359000Y-87226000D01*
X137357000Y-87226000D01*
X137354000Y-87227000D01*
X137352000Y-87227000D01*
X137349000Y-87228000D01*
X137347000Y-87228000D01*
X137344000Y-87228000D01*
X136404000Y-87228000D01*
X136401000Y-87228000D01*
X136399000Y-87228000D01*
X136396000Y-87227000D01*
X136394000Y-87227000D01*
X136391000Y-87226000D01*
X136389000Y-87226000D01*
X136386000Y-87225000D01*
X136384000Y-87224000D01*
X136381000Y-87223000D01*
X136379000Y-87221000D01*
X136377000Y-87220000D01*
X136375000Y-87218000D01*
X136373000Y-87217000D01*
X136371000Y-87215000D01*
X136369000Y-87213000D01*
X136367000Y-87211000D01*
X136365000Y-87209000D01*
X136364000Y-87207000D01*
X136362000Y-87205000D01*
X136361000Y-87203000D01*
X136359000Y-87201000D01*
X136358000Y-87198000D01*
X136357000Y-87196000D01*
X136356000Y-87193000D01*
X136356000Y-87191000D01*
X136355000Y-87188000D01*
X136355000Y-87186000D01*
X136354000Y-87183000D01*
X136354000Y-87181000D01*
X136354000Y-87178000D01*
X136354000Y-85138000D01*
X136354000Y-85135000D01*
X136354000Y-85133000D01*
X136355000Y-85130000D01*
X136355000Y-85128000D01*
X136356000Y-85125000D01*
X136356000Y-85123000D01*
X136357000Y-85120000D01*
X136358000Y-85118000D01*
X136359000Y-85115000D01*
X136361000Y-85113000D01*
X136362000Y-85111000D01*
X136364000Y-85109000D01*
X136365000Y-85107000D01*
X136367000Y-85105000D01*
X136369000Y-85103000D01*
X136371000Y-85101000D01*
X136373000Y-85099000D01*
X136375000Y-85098000D01*
X136377000Y-85096000D01*
X136379000Y-85095000D01*
X136381000Y-85093000D01*
X136384000Y-85092000D01*
X136386000Y-85091000D01*
X136389000Y-85090000D01*
X136391000Y-85090000D01*
X136394000Y-85089000D01*
X136396000Y-85089000D01*
X136399000Y-85088000D01*
X136401000Y-85088000D01*
X136404000Y-85088000D01*
X137344000Y-85088000D01*
X137347000Y-85088000D01*
X137349000Y-85088000D01*
X137352000Y-85089000D01*
G37*
X138102000Y-84714000D02*
X138104000Y-84714000D01*
X138107000Y-84715000D01*
X138109000Y-84715000D01*
X138112000Y-84716000D01*
X138114000Y-84717000D01*
X138117000Y-84718000D01*
X138119000Y-84720000D01*
X138121000Y-84721000D01*
X138123000Y-84723000D01*
X138125000Y-84724000D01*
X138127000Y-84726000D01*
X138129000Y-84728000D01*
X138131000Y-84730000D01*
X138133000Y-84732000D01*
X138134000Y-84734000D01*
X138136000Y-84736000D01*
X138137000Y-84738000D01*
X138139000Y-84740000D01*
X138140000Y-84743000D01*
X138141000Y-84745000D01*
X138142000Y-84748000D01*
X138142000Y-84750000D01*
X138143000Y-84753000D01*
X138143000Y-84755000D01*
X138144000Y-84758000D01*
X138144000Y-84760000D01*
X138144000Y-84763000D01*
X138144000Y-85053000D01*
X138144000Y-85056000D01*
X138144000Y-85058000D01*
X138143000Y-85061000D01*
X138143000Y-85063000D01*
X138142000Y-85066000D01*
X138142000Y-85068000D01*
X138141000Y-85071000D01*
X138140000Y-85073000D01*
X138139000Y-85076000D01*
X138137000Y-85078000D01*
X138136000Y-85080000D01*
X138134000Y-85082000D01*
X138133000Y-85084000D01*
X138131000Y-85086000D01*
X138129000Y-85088000D01*
X138127000Y-85090000D01*
X138125000Y-85092000D01*
X138123000Y-85093000D01*
X138121000Y-85095000D01*
X138119000Y-85096000D01*
X138117000Y-85098000D01*
X138114000Y-85099000D01*
X138112000Y-85100000D01*
X138109000Y-85101000D01*
X138107000Y-85101000D01*
X138104000Y-85102000D01*
X138102000Y-85102000D01*
X138099000Y-85103000D01*
X138097000Y-85103000D01*
X138094000Y-85103000D01*
X137554000Y-85103000D01*
X137551000Y-85103000D01*
X137549000Y-85103000D01*
X137546000Y-85102000D01*
X137544000Y-85102000D01*
X137541000Y-85101000D01*
X137539000Y-85101000D01*
X137536000Y-85100000D01*
X137534000Y-85099000D01*
X137531000Y-85098000D01*
X137529000Y-85096000D01*
X137527000Y-85095000D01*
X137525000Y-85093000D01*
X137523000Y-85092000D01*
X137521000Y-85090000D01*
X137519000Y-85088000D01*
X137517000Y-85086000D01*
X137515000Y-85084000D01*
X137514000Y-85082000D01*
X137512000Y-85080000D01*
X137511000Y-85078000D01*
X137509000Y-85076000D01*
X137508000Y-85073000D01*
X137507000Y-85071000D01*
X137506000Y-85068000D01*
X137506000Y-85066000D01*
X137505000Y-85063000D01*
X137505000Y-85061000D01*
X137504000Y-85058000D01*
X137504000Y-85056000D01*
X137504000Y-85053000D01*
X137504000Y-84763000D01*
X137504000Y-84760000D01*
X137504000Y-84758000D01*
X137505000Y-84755000D01*
X137505000Y-84753000D01*
X137506000Y-84750000D01*
X137506000Y-84748000D01*
X137507000Y-84745000D01*
X137508000Y-84743000D01*
X137509000Y-84740000D01*
X137511000Y-84738000D01*
X137512000Y-84736000D01*
X137514000Y-84734000D01*
X137515000Y-84732000D01*
X137517000Y-84730000D01*
X137519000Y-84728000D01*
X137521000Y-84726000D01*
X137523000Y-84724000D01*
X137525000Y-84723000D01*
X137527000Y-84721000D01*
X137529000Y-84720000D01*
X137531000Y-84718000D01*
X137534000Y-84717000D01*
X137536000Y-84716000D01*
X137539000Y-84715000D01*
X137541000Y-84715000D01*
X137544000Y-84714000D01*
X137546000Y-84714000D01*
X137549000Y-84713000D01*
X137551000Y-84713000D01*
X137554000Y-84713000D01*
X138094000Y-84713000D01*
X138097000Y-84713000D01*
X138099000Y-84713000D01*
X138102000Y-84714000D01*
G36*
X138102000Y-84714000D02*
G01*
X138104000Y-84714000D01*
X138107000Y-84715000D01*
X138109000Y-84715000D01*
X138112000Y-84716000D01*
X138114000Y-84717000D01*
X138117000Y-84718000D01*
X138119000Y-84720000D01*
X138121000Y-84721000D01*
X138123000Y-84723000D01*
X138125000Y-84724000D01*
X138127000Y-84726000D01*
X138129000Y-84728000D01*
X138131000Y-84730000D01*
X138133000Y-84732000D01*
X138134000Y-84734000D01*
X138136000Y-84736000D01*
X138137000Y-84738000D01*
X138139000Y-84740000D01*
X138140000Y-84743000D01*
X138141000Y-84745000D01*
X138142000Y-84748000D01*
X138142000Y-84750000D01*
X138143000Y-84753000D01*
X138143000Y-84755000D01*
X138144000Y-84758000D01*
X138144000Y-84760000D01*
X138144000Y-84763000D01*
X138144000Y-85053000D01*
X138144000Y-85056000D01*
X138144000Y-85058000D01*
X138143000Y-85061000D01*
X138143000Y-85063000D01*
X138142000Y-85066000D01*
X138142000Y-85068000D01*
X138141000Y-85071000D01*
X138140000Y-85073000D01*
X138139000Y-85076000D01*
X138137000Y-85078000D01*
X138136000Y-85080000D01*
X138134000Y-85082000D01*
X138133000Y-85084000D01*
X138131000Y-85086000D01*
X138129000Y-85088000D01*
X138127000Y-85090000D01*
X138125000Y-85092000D01*
X138123000Y-85093000D01*
X138121000Y-85095000D01*
X138119000Y-85096000D01*
X138117000Y-85098000D01*
X138114000Y-85099000D01*
X138112000Y-85100000D01*
X138109000Y-85101000D01*
X138107000Y-85101000D01*
X138104000Y-85102000D01*
X138102000Y-85102000D01*
X138099000Y-85103000D01*
X138097000Y-85103000D01*
X138094000Y-85103000D01*
X137554000Y-85103000D01*
X137551000Y-85103000D01*
X137549000Y-85103000D01*
X137546000Y-85102000D01*
X137544000Y-85102000D01*
X137541000Y-85101000D01*
X137539000Y-85101000D01*
X137536000Y-85100000D01*
X137534000Y-85099000D01*
X137531000Y-85098000D01*
X137529000Y-85096000D01*
X137527000Y-85095000D01*
X137525000Y-85093000D01*
X137523000Y-85092000D01*
X137521000Y-85090000D01*
X137519000Y-85088000D01*
X137517000Y-85086000D01*
X137515000Y-85084000D01*
X137514000Y-85082000D01*
X137512000Y-85080000D01*
X137511000Y-85078000D01*
X137509000Y-85076000D01*
X137508000Y-85073000D01*
X137507000Y-85071000D01*
X137506000Y-85068000D01*
X137506000Y-85066000D01*
X137505000Y-85063000D01*
X137505000Y-85061000D01*
X137504000Y-85058000D01*
X137504000Y-85056000D01*
X137504000Y-85053000D01*
X137504000Y-84763000D01*
X137504000Y-84760000D01*
X137504000Y-84758000D01*
X137505000Y-84755000D01*
X137505000Y-84753000D01*
X137506000Y-84750000D01*
X137506000Y-84748000D01*
X137507000Y-84745000D01*
X137508000Y-84743000D01*
X137509000Y-84740000D01*
X137511000Y-84738000D01*
X137512000Y-84736000D01*
X137514000Y-84734000D01*
X137515000Y-84732000D01*
X137517000Y-84730000D01*
X137519000Y-84728000D01*
X137521000Y-84726000D01*
X137523000Y-84724000D01*
X137525000Y-84723000D01*
X137527000Y-84721000D01*
X137529000Y-84720000D01*
X137531000Y-84718000D01*
X137534000Y-84717000D01*
X137536000Y-84716000D01*
X137539000Y-84715000D01*
X137541000Y-84715000D01*
X137544000Y-84714000D01*
X137546000Y-84714000D01*
X137549000Y-84713000D01*
X137551000Y-84713000D01*
X137554000Y-84713000D01*
X138094000Y-84713000D01*
X138097000Y-84713000D01*
X138099000Y-84713000D01*
X138102000Y-84714000D01*
G37*
X138102000Y-85214000D02*
X138104000Y-85214000D01*
X138107000Y-85215000D01*
X138109000Y-85215000D01*
X138112000Y-85216000D01*
X138114000Y-85217000D01*
X138117000Y-85218000D01*
X138119000Y-85220000D01*
X138121000Y-85221000D01*
X138123000Y-85223000D01*
X138125000Y-85224000D01*
X138127000Y-85226000D01*
X138129000Y-85228000D01*
X138131000Y-85230000D01*
X138133000Y-85232000D01*
X138134000Y-85234000D01*
X138136000Y-85236000D01*
X138137000Y-85238000D01*
X138139000Y-85240000D01*
X138140000Y-85243000D01*
X138141000Y-85245000D01*
X138142000Y-85248000D01*
X138142000Y-85250000D01*
X138143000Y-85253000D01*
X138143000Y-85255000D01*
X138144000Y-85258000D01*
X138144000Y-85260000D01*
X138144000Y-85263000D01*
X138144000Y-85553000D01*
X138144000Y-85556000D01*
X138144000Y-85558000D01*
X138143000Y-85561000D01*
X138143000Y-85563000D01*
X138142000Y-85566000D01*
X138142000Y-85568000D01*
X138141000Y-85571000D01*
X138140000Y-85573000D01*
X138139000Y-85576000D01*
X138137000Y-85578000D01*
X138136000Y-85580000D01*
X138134000Y-85582000D01*
X138133000Y-85584000D01*
X138131000Y-85586000D01*
X138129000Y-85588000D01*
X138127000Y-85590000D01*
X138125000Y-85592000D01*
X138123000Y-85593000D01*
X138121000Y-85595000D01*
X138119000Y-85596000D01*
X138117000Y-85598000D01*
X138114000Y-85599000D01*
X138112000Y-85600000D01*
X138109000Y-85601000D01*
X138107000Y-85601000D01*
X138104000Y-85602000D01*
X138102000Y-85602000D01*
X138099000Y-85603000D01*
X138097000Y-85603000D01*
X138094000Y-85603000D01*
X137554000Y-85603000D01*
X137551000Y-85603000D01*
X137549000Y-85603000D01*
X137546000Y-85602000D01*
X137544000Y-85602000D01*
X137541000Y-85601000D01*
X137539000Y-85601000D01*
X137536000Y-85600000D01*
X137534000Y-85599000D01*
X137531000Y-85598000D01*
X137529000Y-85596000D01*
X137527000Y-85595000D01*
X137525000Y-85593000D01*
X137523000Y-85592000D01*
X137521000Y-85590000D01*
X137519000Y-85588000D01*
X137517000Y-85586000D01*
X137515000Y-85584000D01*
X137514000Y-85582000D01*
X137512000Y-85580000D01*
X137511000Y-85578000D01*
X137509000Y-85576000D01*
X137508000Y-85573000D01*
X137507000Y-85571000D01*
X137506000Y-85568000D01*
X137506000Y-85566000D01*
X137505000Y-85563000D01*
X137505000Y-85561000D01*
X137504000Y-85558000D01*
X137504000Y-85556000D01*
X137504000Y-85553000D01*
X137504000Y-85263000D01*
X137504000Y-85260000D01*
X137504000Y-85258000D01*
X137505000Y-85255000D01*
X137505000Y-85253000D01*
X137506000Y-85250000D01*
X137506000Y-85248000D01*
X137507000Y-85245000D01*
X137508000Y-85243000D01*
X137509000Y-85240000D01*
X137511000Y-85238000D01*
X137512000Y-85236000D01*
X137514000Y-85234000D01*
X137515000Y-85232000D01*
X137517000Y-85230000D01*
X137519000Y-85228000D01*
X137521000Y-85226000D01*
X137523000Y-85224000D01*
X137525000Y-85223000D01*
X137527000Y-85221000D01*
X137529000Y-85220000D01*
X137531000Y-85218000D01*
X137534000Y-85217000D01*
X137536000Y-85216000D01*
X137539000Y-85215000D01*
X137541000Y-85215000D01*
X137544000Y-85214000D01*
X137546000Y-85214000D01*
X137549000Y-85213000D01*
X137551000Y-85213000D01*
X137554000Y-85213000D01*
X138094000Y-85213000D01*
X138097000Y-85213000D01*
X138099000Y-85213000D01*
X138102000Y-85214000D01*
G36*
X138102000Y-85214000D02*
G01*
X138104000Y-85214000D01*
X138107000Y-85215000D01*
X138109000Y-85215000D01*
X138112000Y-85216000D01*
X138114000Y-85217000D01*
X138117000Y-85218000D01*
X138119000Y-85220000D01*
X138121000Y-85221000D01*
X138123000Y-85223000D01*
X138125000Y-85224000D01*
X138127000Y-85226000D01*
X138129000Y-85228000D01*
X138131000Y-85230000D01*
X138133000Y-85232000D01*
X138134000Y-85234000D01*
X138136000Y-85236000D01*
X138137000Y-85238000D01*
X138139000Y-85240000D01*
X138140000Y-85243000D01*
X138141000Y-85245000D01*
X138142000Y-85248000D01*
X138142000Y-85250000D01*
X138143000Y-85253000D01*
X138143000Y-85255000D01*
X138144000Y-85258000D01*
X138144000Y-85260000D01*
X138144000Y-85263000D01*
X138144000Y-85553000D01*
X138144000Y-85556000D01*
X138144000Y-85558000D01*
X138143000Y-85561000D01*
X138143000Y-85563000D01*
X138142000Y-85566000D01*
X138142000Y-85568000D01*
X138141000Y-85571000D01*
X138140000Y-85573000D01*
X138139000Y-85576000D01*
X138137000Y-85578000D01*
X138136000Y-85580000D01*
X138134000Y-85582000D01*
X138133000Y-85584000D01*
X138131000Y-85586000D01*
X138129000Y-85588000D01*
X138127000Y-85590000D01*
X138125000Y-85592000D01*
X138123000Y-85593000D01*
X138121000Y-85595000D01*
X138119000Y-85596000D01*
X138117000Y-85598000D01*
X138114000Y-85599000D01*
X138112000Y-85600000D01*
X138109000Y-85601000D01*
X138107000Y-85601000D01*
X138104000Y-85602000D01*
X138102000Y-85602000D01*
X138099000Y-85603000D01*
X138097000Y-85603000D01*
X138094000Y-85603000D01*
X137554000Y-85603000D01*
X137551000Y-85603000D01*
X137549000Y-85603000D01*
X137546000Y-85602000D01*
X137544000Y-85602000D01*
X137541000Y-85601000D01*
X137539000Y-85601000D01*
X137536000Y-85600000D01*
X137534000Y-85599000D01*
X137531000Y-85598000D01*
X137529000Y-85596000D01*
X137527000Y-85595000D01*
X137525000Y-85593000D01*
X137523000Y-85592000D01*
X137521000Y-85590000D01*
X137519000Y-85588000D01*
X137517000Y-85586000D01*
X137515000Y-85584000D01*
X137514000Y-85582000D01*
X137512000Y-85580000D01*
X137511000Y-85578000D01*
X137509000Y-85576000D01*
X137508000Y-85573000D01*
X137507000Y-85571000D01*
X137506000Y-85568000D01*
X137506000Y-85566000D01*
X137505000Y-85563000D01*
X137505000Y-85561000D01*
X137504000Y-85558000D01*
X137504000Y-85556000D01*
X137504000Y-85553000D01*
X137504000Y-85263000D01*
X137504000Y-85260000D01*
X137504000Y-85258000D01*
X137505000Y-85255000D01*
X137505000Y-85253000D01*
X137506000Y-85250000D01*
X137506000Y-85248000D01*
X137507000Y-85245000D01*
X137508000Y-85243000D01*
X137509000Y-85240000D01*
X137511000Y-85238000D01*
X137512000Y-85236000D01*
X137514000Y-85234000D01*
X137515000Y-85232000D01*
X137517000Y-85230000D01*
X137519000Y-85228000D01*
X137521000Y-85226000D01*
X137523000Y-85224000D01*
X137525000Y-85223000D01*
X137527000Y-85221000D01*
X137529000Y-85220000D01*
X137531000Y-85218000D01*
X137534000Y-85217000D01*
X137536000Y-85216000D01*
X137539000Y-85215000D01*
X137541000Y-85215000D01*
X137544000Y-85214000D01*
X137546000Y-85214000D01*
X137549000Y-85213000D01*
X137551000Y-85213000D01*
X137554000Y-85213000D01*
X138094000Y-85213000D01*
X138097000Y-85213000D01*
X138099000Y-85213000D01*
X138102000Y-85214000D01*
G37*
X138102000Y-85714000D02*
X138104000Y-85714000D01*
X138107000Y-85715000D01*
X138109000Y-85715000D01*
X138112000Y-85716000D01*
X138114000Y-85717000D01*
X138117000Y-85718000D01*
X138119000Y-85720000D01*
X138121000Y-85721000D01*
X138123000Y-85723000D01*
X138125000Y-85724000D01*
X138127000Y-85726000D01*
X138129000Y-85728000D01*
X138131000Y-85730000D01*
X138133000Y-85732000D01*
X138134000Y-85734000D01*
X138136000Y-85736000D01*
X138137000Y-85738000D01*
X138139000Y-85740000D01*
X138140000Y-85743000D01*
X138141000Y-85745000D01*
X138142000Y-85748000D01*
X138142000Y-85750000D01*
X138143000Y-85753000D01*
X138143000Y-85755000D01*
X138144000Y-85758000D01*
X138144000Y-85760000D01*
X138144000Y-85763000D01*
X138144000Y-86053000D01*
X138144000Y-86056000D01*
X138144000Y-86058000D01*
X138143000Y-86061000D01*
X138143000Y-86063000D01*
X138142000Y-86066000D01*
X138142000Y-86068000D01*
X138141000Y-86071000D01*
X138140000Y-86073000D01*
X138139000Y-86076000D01*
X138137000Y-86078000D01*
X138136000Y-86080000D01*
X138134000Y-86082000D01*
X138133000Y-86084000D01*
X138131000Y-86086000D01*
X138129000Y-86088000D01*
X138127000Y-86090000D01*
X138125000Y-86092000D01*
X138123000Y-86093000D01*
X138121000Y-86095000D01*
X138119000Y-86096000D01*
X138117000Y-86098000D01*
X138114000Y-86099000D01*
X138112000Y-86100000D01*
X138109000Y-86101000D01*
X138107000Y-86101000D01*
X138104000Y-86102000D01*
X138102000Y-86102000D01*
X138099000Y-86103000D01*
X138097000Y-86103000D01*
X138094000Y-86103000D01*
X137554000Y-86103000D01*
X137551000Y-86103000D01*
X137549000Y-86103000D01*
X137546000Y-86102000D01*
X137544000Y-86102000D01*
X137541000Y-86101000D01*
X137539000Y-86101000D01*
X137536000Y-86100000D01*
X137534000Y-86099000D01*
X137531000Y-86098000D01*
X137529000Y-86096000D01*
X137527000Y-86095000D01*
X137525000Y-86093000D01*
X137523000Y-86092000D01*
X137521000Y-86090000D01*
X137519000Y-86088000D01*
X137517000Y-86086000D01*
X137515000Y-86084000D01*
X137514000Y-86082000D01*
X137512000Y-86080000D01*
X137511000Y-86078000D01*
X137509000Y-86076000D01*
X137508000Y-86073000D01*
X137507000Y-86071000D01*
X137506000Y-86068000D01*
X137506000Y-86066000D01*
X137505000Y-86063000D01*
X137505000Y-86061000D01*
X137504000Y-86058000D01*
X137504000Y-86056000D01*
X137504000Y-86053000D01*
X137504000Y-85763000D01*
X137504000Y-85760000D01*
X137504000Y-85758000D01*
X137505000Y-85755000D01*
X137505000Y-85753000D01*
X137506000Y-85750000D01*
X137506000Y-85748000D01*
X137507000Y-85745000D01*
X137508000Y-85743000D01*
X137509000Y-85740000D01*
X137511000Y-85738000D01*
X137512000Y-85736000D01*
X137514000Y-85734000D01*
X137515000Y-85732000D01*
X137517000Y-85730000D01*
X137519000Y-85728000D01*
X137521000Y-85726000D01*
X137523000Y-85724000D01*
X137525000Y-85723000D01*
X137527000Y-85721000D01*
X137529000Y-85720000D01*
X137531000Y-85718000D01*
X137534000Y-85717000D01*
X137536000Y-85716000D01*
X137539000Y-85715000D01*
X137541000Y-85715000D01*
X137544000Y-85714000D01*
X137546000Y-85714000D01*
X137549000Y-85713000D01*
X137551000Y-85713000D01*
X137554000Y-85713000D01*
X138094000Y-85713000D01*
X138097000Y-85713000D01*
X138099000Y-85713000D01*
X138102000Y-85714000D01*
G36*
X138102000Y-85714000D02*
G01*
X138104000Y-85714000D01*
X138107000Y-85715000D01*
X138109000Y-85715000D01*
X138112000Y-85716000D01*
X138114000Y-85717000D01*
X138117000Y-85718000D01*
X138119000Y-85720000D01*
X138121000Y-85721000D01*
X138123000Y-85723000D01*
X138125000Y-85724000D01*
X138127000Y-85726000D01*
X138129000Y-85728000D01*
X138131000Y-85730000D01*
X138133000Y-85732000D01*
X138134000Y-85734000D01*
X138136000Y-85736000D01*
X138137000Y-85738000D01*
X138139000Y-85740000D01*
X138140000Y-85743000D01*
X138141000Y-85745000D01*
X138142000Y-85748000D01*
X138142000Y-85750000D01*
X138143000Y-85753000D01*
X138143000Y-85755000D01*
X138144000Y-85758000D01*
X138144000Y-85760000D01*
X138144000Y-85763000D01*
X138144000Y-86053000D01*
X138144000Y-86056000D01*
X138144000Y-86058000D01*
X138143000Y-86061000D01*
X138143000Y-86063000D01*
X138142000Y-86066000D01*
X138142000Y-86068000D01*
X138141000Y-86071000D01*
X138140000Y-86073000D01*
X138139000Y-86076000D01*
X138137000Y-86078000D01*
X138136000Y-86080000D01*
X138134000Y-86082000D01*
X138133000Y-86084000D01*
X138131000Y-86086000D01*
X138129000Y-86088000D01*
X138127000Y-86090000D01*
X138125000Y-86092000D01*
X138123000Y-86093000D01*
X138121000Y-86095000D01*
X138119000Y-86096000D01*
X138117000Y-86098000D01*
X138114000Y-86099000D01*
X138112000Y-86100000D01*
X138109000Y-86101000D01*
X138107000Y-86101000D01*
X138104000Y-86102000D01*
X138102000Y-86102000D01*
X138099000Y-86103000D01*
X138097000Y-86103000D01*
X138094000Y-86103000D01*
X137554000Y-86103000D01*
X137551000Y-86103000D01*
X137549000Y-86103000D01*
X137546000Y-86102000D01*
X137544000Y-86102000D01*
X137541000Y-86101000D01*
X137539000Y-86101000D01*
X137536000Y-86100000D01*
X137534000Y-86099000D01*
X137531000Y-86098000D01*
X137529000Y-86096000D01*
X137527000Y-86095000D01*
X137525000Y-86093000D01*
X137523000Y-86092000D01*
X137521000Y-86090000D01*
X137519000Y-86088000D01*
X137517000Y-86086000D01*
X137515000Y-86084000D01*
X137514000Y-86082000D01*
X137512000Y-86080000D01*
X137511000Y-86078000D01*
X137509000Y-86076000D01*
X137508000Y-86073000D01*
X137507000Y-86071000D01*
X137506000Y-86068000D01*
X137506000Y-86066000D01*
X137505000Y-86063000D01*
X137505000Y-86061000D01*
X137504000Y-86058000D01*
X137504000Y-86056000D01*
X137504000Y-86053000D01*
X137504000Y-85763000D01*
X137504000Y-85760000D01*
X137504000Y-85758000D01*
X137505000Y-85755000D01*
X137505000Y-85753000D01*
X137506000Y-85750000D01*
X137506000Y-85748000D01*
X137507000Y-85745000D01*
X137508000Y-85743000D01*
X137509000Y-85740000D01*
X137511000Y-85738000D01*
X137512000Y-85736000D01*
X137514000Y-85734000D01*
X137515000Y-85732000D01*
X137517000Y-85730000D01*
X137519000Y-85728000D01*
X137521000Y-85726000D01*
X137523000Y-85724000D01*
X137525000Y-85723000D01*
X137527000Y-85721000D01*
X137529000Y-85720000D01*
X137531000Y-85718000D01*
X137534000Y-85717000D01*
X137536000Y-85716000D01*
X137539000Y-85715000D01*
X137541000Y-85715000D01*
X137544000Y-85714000D01*
X137546000Y-85714000D01*
X137549000Y-85713000D01*
X137551000Y-85713000D01*
X137554000Y-85713000D01*
X138094000Y-85713000D01*
X138097000Y-85713000D01*
X138099000Y-85713000D01*
X138102000Y-85714000D01*
G37*
X138102000Y-86214000D02*
X138104000Y-86214000D01*
X138107000Y-86215000D01*
X138109000Y-86215000D01*
X138112000Y-86216000D01*
X138114000Y-86217000D01*
X138117000Y-86218000D01*
X138119000Y-86220000D01*
X138121000Y-86221000D01*
X138123000Y-86223000D01*
X138125000Y-86224000D01*
X138127000Y-86226000D01*
X138129000Y-86228000D01*
X138131000Y-86230000D01*
X138133000Y-86232000D01*
X138134000Y-86234000D01*
X138136000Y-86236000D01*
X138137000Y-86238000D01*
X138139000Y-86240000D01*
X138140000Y-86243000D01*
X138141000Y-86245000D01*
X138142000Y-86248000D01*
X138142000Y-86250000D01*
X138143000Y-86253000D01*
X138143000Y-86255000D01*
X138144000Y-86258000D01*
X138144000Y-86260000D01*
X138144000Y-86263000D01*
X138144000Y-86553000D01*
X138144000Y-86556000D01*
X138144000Y-86558000D01*
X138143000Y-86561000D01*
X138143000Y-86563000D01*
X138142000Y-86566000D01*
X138142000Y-86568000D01*
X138141000Y-86571000D01*
X138140000Y-86573000D01*
X138139000Y-86576000D01*
X138137000Y-86578000D01*
X138136000Y-86580000D01*
X138134000Y-86582000D01*
X138133000Y-86584000D01*
X138131000Y-86586000D01*
X138129000Y-86588000D01*
X138127000Y-86590000D01*
X138125000Y-86592000D01*
X138123000Y-86593000D01*
X138121000Y-86595000D01*
X138119000Y-86596000D01*
X138117000Y-86598000D01*
X138114000Y-86599000D01*
X138112000Y-86600000D01*
X138109000Y-86601000D01*
X138107000Y-86601000D01*
X138104000Y-86602000D01*
X138102000Y-86602000D01*
X138099000Y-86603000D01*
X138097000Y-86603000D01*
X138094000Y-86603000D01*
X137554000Y-86603000D01*
X137551000Y-86603000D01*
X137549000Y-86603000D01*
X137546000Y-86602000D01*
X137544000Y-86602000D01*
X137541000Y-86601000D01*
X137539000Y-86601000D01*
X137536000Y-86600000D01*
X137534000Y-86599000D01*
X137531000Y-86598000D01*
X137529000Y-86596000D01*
X137527000Y-86595000D01*
X137525000Y-86593000D01*
X137523000Y-86592000D01*
X137521000Y-86590000D01*
X137519000Y-86588000D01*
X137517000Y-86586000D01*
X137515000Y-86584000D01*
X137514000Y-86582000D01*
X137512000Y-86580000D01*
X137511000Y-86578000D01*
X137509000Y-86576000D01*
X137508000Y-86573000D01*
X137507000Y-86571000D01*
X137506000Y-86568000D01*
X137506000Y-86566000D01*
X137505000Y-86563000D01*
X137505000Y-86561000D01*
X137504000Y-86558000D01*
X137504000Y-86556000D01*
X137504000Y-86553000D01*
X137504000Y-86263000D01*
X137504000Y-86260000D01*
X137504000Y-86258000D01*
X137505000Y-86255000D01*
X137505000Y-86253000D01*
X137506000Y-86250000D01*
X137506000Y-86248000D01*
X137507000Y-86245000D01*
X137508000Y-86243000D01*
X137509000Y-86240000D01*
X137511000Y-86238000D01*
X137512000Y-86236000D01*
X137514000Y-86234000D01*
X137515000Y-86232000D01*
X137517000Y-86230000D01*
X137519000Y-86228000D01*
X137521000Y-86226000D01*
X137523000Y-86224000D01*
X137525000Y-86223000D01*
X137527000Y-86221000D01*
X137529000Y-86220000D01*
X137531000Y-86218000D01*
X137534000Y-86217000D01*
X137536000Y-86216000D01*
X137539000Y-86215000D01*
X137541000Y-86215000D01*
X137544000Y-86214000D01*
X137546000Y-86214000D01*
X137549000Y-86213000D01*
X137551000Y-86213000D01*
X137554000Y-86213000D01*
X138094000Y-86213000D01*
X138097000Y-86213000D01*
X138099000Y-86213000D01*
X138102000Y-86214000D01*
G36*
X138102000Y-86214000D02*
G01*
X138104000Y-86214000D01*
X138107000Y-86215000D01*
X138109000Y-86215000D01*
X138112000Y-86216000D01*
X138114000Y-86217000D01*
X138117000Y-86218000D01*
X138119000Y-86220000D01*
X138121000Y-86221000D01*
X138123000Y-86223000D01*
X138125000Y-86224000D01*
X138127000Y-86226000D01*
X138129000Y-86228000D01*
X138131000Y-86230000D01*
X138133000Y-86232000D01*
X138134000Y-86234000D01*
X138136000Y-86236000D01*
X138137000Y-86238000D01*
X138139000Y-86240000D01*
X138140000Y-86243000D01*
X138141000Y-86245000D01*
X138142000Y-86248000D01*
X138142000Y-86250000D01*
X138143000Y-86253000D01*
X138143000Y-86255000D01*
X138144000Y-86258000D01*
X138144000Y-86260000D01*
X138144000Y-86263000D01*
X138144000Y-86553000D01*
X138144000Y-86556000D01*
X138144000Y-86558000D01*
X138143000Y-86561000D01*
X138143000Y-86563000D01*
X138142000Y-86566000D01*
X138142000Y-86568000D01*
X138141000Y-86571000D01*
X138140000Y-86573000D01*
X138139000Y-86576000D01*
X138137000Y-86578000D01*
X138136000Y-86580000D01*
X138134000Y-86582000D01*
X138133000Y-86584000D01*
X138131000Y-86586000D01*
X138129000Y-86588000D01*
X138127000Y-86590000D01*
X138125000Y-86592000D01*
X138123000Y-86593000D01*
X138121000Y-86595000D01*
X138119000Y-86596000D01*
X138117000Y-86598000D01*
X138114000Y-86599000D01*
X138112000Y-86600000D01*
X138109000Y-86601000D01*
X138107000Y-86601000D01*
X138104000Y-86602000D01*
X138102000Y-86602000D01*
X138099000Y-86603000D01*
X138097000Y-86603000D01*
X138094000Y-86603000D01*
X137554000Y-86603000D01*
X137551000Y-86603000D01*
X137549000Y-86603000D01*
X137546000Y-86602000D01*
X137544000Y-86602000D01*
X137541000Y-86601000D01*
X137539000Y-86601000D01*
X137536000Y-86600000D01*
X137534000Y-86599000D01*
X137531000Y-86598000D01*
X137529000Y-86596000D01*
X137527000Y-86595000D01*
X137525000Y-86593000D01*
X137523000Y-86592000D01*
X137521000Y-86590000D01*
X137519000Y-86588000D01*
X137517000Y-86586000D01*
X137515000Y-86584000D01*
X137514000Y-86582000D01*
X137512000Y-86580000D01*
X137511000Y-86578000D01*
X137509000Y-86576000D01*
X137508000Y-86573000D01*
X137507000Y-86571000D01*
X137506000Y-86568000D01*
X137506000Y-86566000D01*
X137505000Y-86563000D01*
X137505000Y-86561000D01*
X137504000Y-86558000D01*
X137504000Y-86556000D01*
X137504000Y-86553000D01*
X137504000Y-86263000D01*
X137504000Y-86260000D01*
X137504000Y-86258000D01*
X137505000Y-86255000D01*
X137505000Y-86253000D01*
X137506000Y-86250000D01*
X137506000Y-86248000D01*
X137507000Y-86245000D01*
X137508000Y-86243000D01*
X137509000Y-86240000D01*
X137511000Y-86238000D01*
X137512000Y-86236000D01*
X137514000Y-86234000D01*
X137515000Y-86232000D01*
X137517000Y-86230000D01*
X137519000Y-86228000D01*
X137521000Y-86226000D01*
X137523000Y-86224000D01*
X137525000Y-86223000D01*
X137527000Y-86221000D01*
X137529000Y-86220000D01*
X137531000Y-86218000D01*
X137534000Y-86217000D01*
X137536000Y-86216000D01*
X137539000Y-86215000D01*
X137541000Y-86215000D01*
X137544000Y-86214000D01*
X137546000Y-86214000D01*
X137549000Y-86213000D01*
X137551000Y-86213000D01*
X137554000Y-86213000D01*
X138094000Y-86213000D01*
X138097000Y-86213000D01*
X138099000Y-86213000D01*
X138102000Y-86214000D01*
G37*
X138102000Y-86714000D02*
X138104000Y-86714000D01*
X138107000Y-86715000D01*
X138109000Y-86715000D01*
X138112000Y-86716000D01*
X138114000Y-86717000D01*
X138117000Y-86718000D01*
X138119000Y-86720000D01*
X138121000Y-86721000D01*
X138123000Y-86723000D01*
X138125000Y-86724000D01*
X138127000Y-86726000D01*
X138129000Y-86728000D01*
X138131000Y-86730000D01*
X138133000Y-86732000D01*
X138134000Y-86734000D01*
X138136000Y-86736000D01*
X138137000Y-86738000D01*
X138139000Y-86740000D01*
X138140000Y-86743000D01*
X138141000Y-86745000D01*
X138142000Y-86748000D01*
X138142000Y-86750000D01*
X138143000Y-86753000D01*
X138143000Y-86755000D01*
X138144000Y-86758000D01*
X138144000Y-86760000D01*
X138144000Y-86763000D01*
X138144000Y-87053000D01*
X138144000Y-87056000D01*
X138144000Y-87058000D01*
X138143000Y-87061000D01*
X138143000Y-87063000D01*
X138142000Y-87066000D01*
X138142000Y-87068000D01*
X138141000Y-87071000D01*
X138140000Y-87073000D01*
X138139000Y-87076000D01*
X138137000Y-87078000D01*
X138136000Y-87080000D01*
X138134000Y-87082000D01*
X138133000Y-87084000D01*
X138131000Y-87086000D01*
X138129000Y-87088000D01*
X138127000Y-87090000D01*
X138125000Y-87092000D01*
X138123000Y-87093000D01*
X138121000Y-87095000D01*
X138119000Y-87096000D01*
X138117000Y-87098000D01*
X138114000Y-87099000D01*
X138112000Y-87100000D01*
X138109000Y-87101000D01*
X138107000Y-87101000D01*
X138104000Y-87102000D01*
X138102000Y-87102000D01*
X138099000Y-87103000D01*
X138097000Y-87103000D01*
X138094000Y-87103000D01*
X137554000Y-87103000D01*
X137551000Y-87103000D01*
X137549000Y-87103000D01*
X137546000Y-87102000D01*
X137544000Y-87102000D01*
X137541000Y-87101000D01*
X137539000Y-87101000D01*
X137536000Y-87100000D01*
X137534000Y-87099000D01*
X137531000Y-87098000D01*
X137529000Y-87096000D01*
X137527000Y-87095000D01*
X137525000Y-87093000D01*
X137523000Y-87092000D01*
X137521000Y-87090000D01*
X137519000Y-87088000D01*
X137517000Y-87086000D01*
X137515000Y-87084000D01*
X137514000Y-87082000D01*
X137512000Y-87080000D01*
X137511000Y-87078000D01*
X137509000Y-87076000D01*
X137508000Y-87073000D01*
X137507000Y-87071000D01*
X137506000Y-87068000D01*
X137506000Y-87066000D01*
X137505000Y-87063000D01*
X137505000Y-87061000D01*
X137504000Y-87058000D01*
X137504000Y-87056000D01*
X137504000Y-87053000D01*
X137504000Y-86763000D01*
X137504000Y-86760000D01*
X137504000Y-86758000D01*
X137505000Y-86755000D01*
X137505000Y-86753000D01*
X137506000Y-86750000D01*
X137506000Y-86748000D01*
X137507000Y-86745000D01*
X137508000Y-86743000D01*
X137509000Y-86740000D01*
X137511000Y-86738000D01*
X137512000Y-86736000D01*
X137514000Y-86734000D01*
X137515000Y-86732000D01*
X137517000Y-86730000D01*
X137519000Y-86728000D01*
X137521000Y-86726000D01*
X137523000Y-86724000D01*
X137525000Y-86723000D01*
X137527000Y-86721000D01*
X137529000Y-86720000D01*
X137531000Y-86718000D01*
X137534000Y-86717000D01*
X137536000Y-86716000D01*
X137539000Y-86715000D01*
X137541000Y-86715000D01*
X137544000Y-86714000D01*
X137546000Y-86714000D01*
X137549000Y-86713000D01*
X137551000Y-86713000D01*
X137554000Y-86713000D01*
X138094000Y-86713000D01*
X138097000Y-86713000D01*
X138099000Y-86713000D01*
X138102000Y-86714000D01*
G36*
X138102000Y-86714000D02*
G01*
X138104000Y-86714000D01*
X138107000Y-86715000D01*
X138109000Y-86715000D01*
X138112000Y-86716000D01*
X138114000Y-86717000D01*
X138117000Y-86718000D01*
X138119000Y-86720000D01*
X138121000Y-86721000D01*
X138123000Y-86723000D01*
X138125000Y-86724000D01*
X138127000Y-86726000D01*
X138129000Y-86728000D01*
X138131000Y-86730000D01*
X138133000Y-86732000D01*
X138134000Y-86734000D01*
X138136000Y-86736000D01*
X138137000Y-86738000D01*
X138139000Y-86740000D01*
X138140000Y-86743000D01*
X138141000Y-86745000D01*
X138142000Y-86748000D01*
X138142000Y-86750000D01*
X138143000Y-86753000D01*
X138143000Y-86755000D01*
X138144000Y-86758000D01*
X138144000Y-86760000D01*
X138144000Y-86763000D01*
X138144000Y-87053000D01*
X138144000Y-87056000D01*
X138144000Y-87058000D01*
X138143000Y-87061000D01*
X138143000Y-87063000D01*
X138142000Y-87066000D01*
X138142000Y-87068000D01*
X138141000Y-87071000D01*
X138140000Y-87073000D01*
X138139000Y-87076000D01*
X138137000Y-87078000D01*
X138136000Y-87080000D01*
X138134000Y-87082000D01*
X138133000Y-87084000D01*
X138131000Y-87086000D01*
X138129000Y-87088000D01*
X138127000Y-87090000D01*
X138125000Y-87092000D01*
X138123000Y-87093000D01*
X138121000Y-87095000D01*
X138119000Y-87096000D01*
X138117000Y-87098000D01*
X138114000Y-87099000D01*
X138112000Y-87100000D01*
X138109000Y-87101000D01*
X138107000Y-87101000D01*
X138104000Y-87102000D01*
X138102000Y-87102000D01*
X138099000Y-87103000D01*
X138097000Y-87103000D01*
X138094000Y-87103000D01*
X137554000Y-87103000D01*
X137551000Y-87103000D01*
X137549000Y-87103000D01*
X137546000Y-87102000D01*
X137544000Y-87102000D01*
X137541000Y-87101000D01*
X137539000Y-87101000D01*
X137536000Y-87100000D01*
X137534000Y-87099000D01*
X137531000Y-87098000D01*
X137529000Y-87096000D01*
X137527000Y-87095000D01*
X137525000Y-87093000D01*
X137523000Y-87092000D01*
X137521000Y-87090000D01*
X137519000Y-87088000D01*
X137517000Y-87086000D01*
X137515000Y-87084000D01*
X137514000Y-87082000D01*
X137512000Y-87080000D01*
X137511000Y-87078000D01*
X137509000Y-87076000D01*
X137508000Y-87073000D01*
X137507000Y-87071000D01*
X137506000Y-87068000D01*
X137506000Y-87066000D01*
X137505000Y-87063000D01*
X137505000Y-87061000D01*
X137504000Y-87058000D01*
X137504000Y-87056000D01*
X137504000Y-87053000D01*
X137504000Y-86763000D01*
X137504000Y-86760000D01*
X137504000Y-86758000D01*
X137505000Y-86755000D01*
X137505000Y-86753000D01*
X137506000Y-86750000D01*
X137506000Y-86748000D01*
X137507000Y-86745000D01*
X137508000Y-86743000D01*
X137509000Y-86740000D01*
X137511000Y-86738000D01*
X137512000Y-86736000D01*
X137514000Y-86734000D01*
X137515000Y-86732000D01*
X137517000Y-86730000D01*
X137519000Y-86728000D01*
X137521000Y-86726000D01*
X137523000Y-86724000D01*
X137525000Y-86723000D01*
X137527000Y-86721000D01*
X137529000Y-86720000D01*
X137531000Y-86718000D01*
X137534000Y-86717000D01*
X137536000Y-86716000D01*
X137539000Y-86715000D01*
X137541000Y-86715000D01*
X137544000Y-86714000D01*
X137546000Y-86714000D01*
X137549000Y-86713000D01*
X137551000Y-86713000D01*
X137554000Y-86713000D01*
X138094000Y-86713000D01*
X138097000Y-86713000D01*
X138099000Y-86713000D01*
X138102000Y-86714000D01*
G37*
X138102000Y-87214000D02*
X138104000Y-87214000D01*
X138107000Y-87215000D01*
X138109000Y-87215000D01*
X138112000Y-87216000D01*
X138114000Y-87217000D01*
X138117000Y-87218000D01*
X138119000Y-87220000D01*
X138121000Y-87221000D01*
X138123000Y-87223000D01*
X138125000Y-87224000D01*
X138127000Y-87226000D01*
X138129000Y-87228000D01*
X138131000Y-87230000D01*
X138133000Y-87232000D01*
X138134000Y-87234000D01*
X138136000Y-87236000D01*
X138137000Y-87238000D01*
X138139000Y-87240000D01*
X138140000Y-87243000D01*
X138141000Y-87245000D01*
X138142000Y-87248000D01*
X138142000Y-87250000D01*
X138143000Y-87253000D01*
X138143000Y-87255000D01*
X138144000Y-87258000D01*
X138144000Y-87260000D01*
X138144000Y-87263000D01*
X138144000Y-87553000D01*
X138144000Y-87556000D01*
X138144000Y-87558000D01*
X138143000Y-87561000D01*
X138143000Y-87563000D01*
X138142000Y-87566000D01*
X138142000Y-87568000D01*
X138141000Y-87571000D01*
X138140000Y-87573000D01*
X138139000Y-87576000D01*
X138137000Y-87578000D01*
X138136000Y-87580000D01*
X138134000Y-87582000D01*
X138133000Y-87584000D01*
X138131000Y-87586000D01*
X138129000Y-87588000D01*
X138127000Y-87590000D01*
X138125000Y-87592000D01*
X138123000Y-87593000D01*
X138121000Y-87595000D01*
X138119000Y-87596000D01*
X138117000Y-87598000D01*
X138114000Y-87599000D01*
X138112000Y-87600000D01*
X138109000Y-87601000D01*
X138107000Y-87601000D01*
X138104000Y-87602000D01*
X138102000Y-87602000D01*
X138099000Y-87603000D01*
X138097000Y-87603000D01*
X138094000Y-87603000D01*
X137554000Y-87603000D01*
X137551000Y-87603000D01*
X137549000Y-87603000D01*
X137546000Y-87602000D01*
X137544000Y-87602000D01*
X137541000Y-87601000D01*
X137539000Y-87601000D01*
X137536000Y-87600000D01*
X137534000Y-87599000D01*
X137531000Y-87598000D01*
X137529000Y-87596000D01*
X137527000Y-87595000D01*
X137525000Y-87593000D01*
X137523000Y-87592000D01*
X137521000Y-87590000D01*
X137519000Y-87588000D01*
X137517000Y-87586000D01*
X137515000Y-87584000D01*
X137514000Y-87582000D01*
X137512000Y-87580000D01*
X137511000Y-87578000D01*
X137509000Y-87576000D01*
X137508000Y-87573000D01*
X137507000Y-87571000D01*
X137506000Y-87568000D01*
X137506000Y-87566000D01*
X137505000Y-87563000D01*
X137505000Y-87561000D01*
X137504000Y-87558000D01*
X137504000Y-87556000D01*
X137504000Y-87553000D01*
X137504000Y-87263000D01*
X137504000Y-87260000D01*
X137504000Y-87258000D01*
X137505000Y-87255000D01*
X137505000Y-87253000D01*
X137506000Y-87250000D01*
X137506000Y-87248000D01*
X137507000Y-87245000D01*
X137508000Y-87243000D01*
X137509000Y-87240000D01*
X137511000Y-87238000D01*
X137512000Y-87236000D01*
X137514000Y-87234000D01*
X137515000Y-87232000D01*
X137517000Y-87230000D01*
X137519000Y-87228000D01*
X137521000Y-87226000D01*
X137523000Y-87224000D01*
X137525000Y-87223000D01*
X137527000Y-87221000D01*
X137529000Y-87220000D01*
X137531000Y-87218000D01*
X137534000Y-87217000D01*
X137536000Y-87216000D01*
X137539000Y-87215000D01*
X137541000Y-87215000D01*
X137544000Y-87214000D01*
X137546000Y-87214000D01*
X137549000Y-87213000D01*
X137551000Y-87213000D01*
X137554000Y-87213000D01*
X138094000Y-87213000D01*
X138097000Y-87213000D01*
X138099000Y-87213000D01*
X138102000Y-87214000D01*
G36*
X138102000Y-87214000D02*
G01*
X138104000Y-87214000D01*
X138107000Y-87215000D01*
X138109000Y-87215000D01*
X138112000Y-87216000D01*
X138114000Y-87217000D01*
X138117000Y-87218000D01*
X138119000Y-87220000D01*
X138121000Y-87221000D01*
X138123000Y-87223000D01*
X138125000Y-87224000D01*
X138127000Y-87226000D01*
X138129000Y-87228000D01*
X138131000Y-87230000D01*
X138133000Y-87232000D01*
X138134000Y-87234000D01*
X138136000Y-87236000D01*
X138137000Y-87238000D01*
X138139000Y-87240000D01*
X138140000Y-87243000D01*
X138141000Y-87245000D01*
X138142000Y-87248000D01*
X138142000Y-87250000D01*
X138143000Y-87253000D01*
X138143000Y-87255000D01*
X138144000Y-87258000D01*
X138144000Y-87260000D01*
X138144000Y-87263000D01*
X138144000Y-87553000D01*
X138144000Y-87556000D01*
X138144000Y-87558000D01*
X138143000Y-87561000D01*
X138143000Y-87563000D01*
X138142000Y-87566000D01*
X138142000Y-87568000D01*
X138141000Y-87571000D01*
X138140000Y-87573000D01*
X138139000Y-87576000D01*
X138137000Y-87578000D01*
X138136000Y-87580000D01*
X138134000Y-87582000D01*
X138133000Y-87584000D01*
X138131000Y-87586000D01*
X138129000Y-87588000D01*
X138127000Y-87590000D01*
X138125000Y-87592000D01*
X138123000Y-87593000D01*
X138121000Y-87595000D01*
X138119000Y-87596000D01*
X138117000Y-87598000D01*
X138114000Y-87599000D01*
X138112000Y-87600000D01*
X138109000Y-87601000D01*
X138107000Y-87601000D01*
X138104000Y-87602000D01*
X138102000Y-87602000D01*
X138099000Y-87603000D01*
X138097000Y-87603000D01*
X138094000Y-87603000D01*
X137554000Y-87603000D01*
X137551000Y-87603000D01*
X137549000Y-87603000D01*
X137546000Y-87602000D01*
X137544000Y-87602000D01*
X137541000Y-87601000D01*
X137539000Y-87601000D01*
X137536000Y-87600000D01*
X137534000Y-87599000D01*
X137531000Y-87598000D01*
X137529000Y-87596000D01*
X137527000Y-87595000D01*
X137525000Y-87593000D01*
X137523000Y-87592000D01*
X137521000Y-87590000D01*
X137519000Y-87588000D01*
X137517000Y-87586000D01*
X137515000Y-87584000D01*
X137514000Y-87582000D01*
X137512000Y-87580000D01*
X137511000Y-87578000D01*
X137509000Y-87576000D01*
X137508000Y-87573000D01*
X137507000Y-87571000D01*
X137506000Y-87568000D01*
X137506000Y-87566000D01*
X137505000Y-87563000D01*
X137505000Y-87561000D01*
X137504000Y-87558000D01*
X137504000Y-87556000D01*
X137504000Y-87553000D01*
X137504000Y-87263000D01*
X137504000Y-87260000D01*
X137504000Y-87258000D01*
X137505000Y-87255000D01*
X137505000Y-87253000D01*
X137506000Y-87250000D01*
X137506000Y-87248000D01*
X137507000Y-87245000D01*
X137508000Y-87243000D01*
X137509000Y-87240000D01*
X137511000Y-87238000D01*
X137512000Y-87236000D01*
X137514000Y-87234000D01*
X137515000Y-87232000D01*
X137517000Y-87230000D01*
X137519000Y-87228000D01*
X137521000Y-87226000D01*
X137523000Y-87224000D01*
X137525000Y-87223000D01*
X137527000Y-87221000D01*
X137529000Y-87220000D01*
X137531000Y-87218000D01*
X137534000Y-87217000D01*
X137536000Y-87216000D01*
X137539000Y-87215000D01*
X137541000Y-87215000D01*
X137544000Y-87214000D01*
X137546000Y-87214000D01*
X137549000Y-87213000D01*
X137551000Y-87213000D01*
X137554000Y-87213000D01*
X138094000Y-87213000D01*
X138097000Y-87213000D01*
X138099000Y-87213000D01*
X138102000Y-87214000D01*
G37*
%TD*%
D11*
%TO.C,J2*%
X135650000Y-92000000D03*
D12*
X136900000Y-92000000D03*
%TD*%
D11*
%TO.C,J1*%
X140963400Y-92000000D03*
D12*
X142213400Y-92000000D03*
%TD*%
D13*
%TO.C,J3*%
X147000000Y-91000000D03*
D14*
X147000000Y-90750000D03*
D15*
X147000000Y-89750000D03*
D14*
X147000000Y-88750000D03*
D15*
X147000000Y-88500000D03*
%TD*%
D16*
%TO.C,R3*%
X139490200Y-88718000D03*
X141315200Y-88718000D03*
%TD*%
D17*
%TO.C,C2*%
X139490200Y-83890900D03*
X139490200Y-82165900D03*
%TD*%
D18*
%TO.C,R2*%
X138017000Y-88718000D03*
X136192000Y-88718000D03*
%TD*%
D16*
%TO.C,R6*%
X146175000Y-85517600D03*
X148000000Y-85517600D03*
%TD*%
%TO.C,R1*%
X141549500Y-87168600D03*
X143374500Y-87168600D03*
%TD*%
D19*
%TO.C,C5*%
X146225000Y-82469600D03*
X147950000Y-82469600D03*
%TD*%
D20*
%TO.C,D1*%
X135251000Y-81377400D03*
X137001000Y-81377400D03*
%TD*%
D18*
%TO.C,R4*%
X148000000Y-83993600D03*
X146175000Y-83993600D03*
%TD*%
D21*
%TO.C,C3*%
X137914300Y-83460200D03*
X136189300Y-83460200D03*
%TD*%
D22*
%TO.C,IC1*%
X142124000Y-84751000D03*
X142674000Y-84751000D03*
X143224000Y-84751000D03*
X143224000Y-82876000D03*
X142674000Y-82876000D03*
X142124000Y-82876000D03*
D23*
X141424000Y-83813000D03*
X143924000Y-83813000D03*
D24*
X142674000Y-83813000D03*
%TD*%
D19*
%TO.C,C4*%
X142616600Y-80920200D03*
X144341600Y-80920200D03*
%TD*%
D25*
%TO.C,C1*%
X139490200Y-85467900D03*
X139490200Y-87192900D03*
%TD*%
D26*
%TO.C,U3*%
X130250000Y-66998600D03*
X130250000Y-68498600D03*
X130250000Y-69998600D03*
X130250000Y-71498600D03*
X130250000Y-72998600D03*
X130250000Y-74498600D03*
X130250000Y-75998600D03*
X130250000Y-77498600D03*
X130250000Y-78998600D03*
X147750000Y-78998600D03*
X147750000Y-77498600D03*
X147750000Y-75998600D03*
X147750000Y-74498600D03*
X147750000Y-72998600D03*
X147750000Y-71498600D03*
X147750000Y-69998600D03*
X147750000Y-68498600D03*
X147750000Y-66998600D03*
D27*
X138860000Y-72648600D03*
X138860000Y-73748600D03*
X139410000Y-72098600D03*
X139410000Y-73198600D03*
X139410000Y-74298600D03*
X139960000Y-72648600D03*
D28*
X139960000Y-73198600D03*
D27*
X139960000Y-73748600D03*
X140510000Y-72098600D03*
X140510000Y-73198600D03*
X140510000Y-74298600D03*
X141060000Y-72648600D03*
X141060000Y-73748600D03*
%TD*%
D16*
%TO.C,R5*%
X146175000Y-80971000D03*
X148000000Y-80971000D03*
%TD*%
D29*
%TO.C,U2*%
X133358100Y-83536400D03*
X133358100Y-84019000D03*
X133358100Y-84527000D03*
X133358100Y-85035000D03*
X133358100Y-85517600D03*
X133358100Y-86025600D03*
X133358100Y-86533600D03*
X133358100Y-87041600D03*
X133358100Y-87524200D03*
X133358100Y-88032200D03*
X133358100Y-88540200D03*
X133358100Y-89022800D03*
D30*
X132088100Y-90800800D03*
X132088100Y-81758400D03*
%TD*%
M02*
