%TF.GenerationSoftware,KiCad,Pcbnew,9.0.2*%
%TF.CreationDate,2025-07-06T15:46:31+09:00*%
%TF.ProjectId,ESP_Racer_2025,4553505f-5261-4636-9572-5f323032352e,rev?*%
%TF.SameCoordinates,Original*%
%TF.FileFunction,Paste,Top*%
%TF.FilePolarity,Positive*%
%FSLAX46Y46*%
G04 Gerber Fmt 4.6, Leading zero omitted, Abs format (unit mm)*
G04 Created by KiCad (PCBNEW 9.0.2) date 2025-07-06 15:46:31*
%MOMM*%
%LPD*%
G01*
G04 APERTURE LIST*
G04 Aperture macros list*
%AMRoundRect*
0 Rectangle with rounded corners*
0 $1 Rounding radius*
0 $2 $3 $4 $5 $6 $7 $8 $9 X,Y pos of 4 corners*
0 Add a 4 corners polygon primitive as box body*
4,1,4,$2,$3,$4,$5,$6,$7,$8,$9,$2,$3,0*
0 Add four circle primitives for the rounded corners*
1,1,$1+$1,$2,$3*
1,1,$1+$1,$4,$5*
1,1,$1+$1,$6,$7*
1,1,$1+$1,$8,$9*
0 Add four rect primitives between the rounded corners*
20,1,$1+$1,$2,$3,$4,$5,0*
20,1,$1+$1,$4,$5,$6,$7,0*
20,1,$1+$1,$6,$7,$8,$9,0*
20,1,$1+$1,$8,$9,$2,$3,0*%
G04 Aperture macros list end*
%ADD10C,0.010000*%
%ADD11RoundRect,0.050000X-0.200000X-0.075000X0.200000X-0.075000X0.200000X0.075000X-0.200000X0.075000X0*%
%ADD12RoundRect,0.237500X-0.250000X-0.237500X0.250000X-0.237500X0.250000X0.237500X-0.250000X0.237500X0*%
%ADD13RoundRect,0.237500X0.237500X-0.300000X0.237500X0.300000X-0.237500X0.300000X-0.237500X-0.300000X0*%
%ADD14RoundRect,0.237500X0.250000X0.237500X-0.250000X0.237500X-0.250000X-0.237500X0.250000X-0.237500X0*%
%ADD15RoundRect,0.237500X-0.300000X-0.237500X0.300000X-0.237500X0.300000X0.237500X-0.300000X0.237500X0*%
%ADD16RoundRect,0.237500X-0.287500X-0.237500X0.287500X-0.237500X0.287500X0.237500X-0.287500X0.237500X0*%
%ADD17RoundRect,0.237500X0.300000X0.237500X-0.300000X0.237500X-0.300000X-0.237500X0.300000X-0.237500X0*%
%ADD18R,0.350000X0.375000*%
%ADD19R,0.400000X2.100000*%
%ADD20R,1.500000X1.100000*%
%ADD21RoundRect,0.237500X-0.237500X0.300000X-0.237500X-0.300000X0.237500X-0.300000X0.237500X0.300000X0*%
%ADD22R,0.700000X0.700000*%
%ADD23R,1.500000X0.900000*%
%ADD24R,1.397000X0.304800*%
%ADD25R,2.311400X2.641600*%
G04 APERTURE END LIST*
D10*
%TO.C,U1*%
X137282000Y-85159000D02*
X137284000Y-85159000D01*
X137287000Y-85160000D01*
X137289000Y-85160000D01*
X137292000Y-85161000D01*
X137294000Y-85162000D01*
X137297000Y-85163000D01*
X137299000Y-85165000D01*
X137301000Y-85166000D01*
X137303000Y-85168000D01*
X137305000Y-85169000D01*
X137307000Y-85171000D01*
X137309000Y-85173000D01*
X137311000Y-85175000D01*
X137313000Y-85177000D01*
X137314000Y-85179000D01*
X137316000Y-85181000D01*
X137317000Y-85183000D01*
X137319000Y-85185000D01*
X137320000Y-85188000D01*
X137321000Y-85190000D01*
X137322000Y-85193000D01*
X137322000Y-85195000D01*
X137323000Y-85198000D01*
X137323000Y-85200000D01*
X137324000Y-85203000D01*
X137324000Y-85205000D01*
X137324000Y-85208000D01*
X137324000Y-85608000D01*
X137324000Y-86008000D01*
X137324000Y-86011000D01*
X137324000Y-86013000D01*
X137323000Y-86016000D01*
X137323000Y-86018000D01*
X137322000Y-86021000D01*
X137322000Y-86023000D01*
X137321000Y-86026000D01*
X137320000Y-86028000D01*
X137319000Y-86031000D01*
X137317000Y-86033000D01*
X137316000Y-86035000D01*
X137314000Y-86037000D01*
X137313000Y-86039000D01*
X137311000Y-86041000D01*
X137309000Y-86043000D01*
X137307000Y-86045000D01*
X137305000Y-86047000D01*
X137303000Y-86048000D01*
X137301000Y-86050000D01*
X137299000Y-86051000D01*
X137297000Y-86053000D01*
X137294000Y-86054000D01*
X137292000Y-86055000D01*
X137289000Y-86056000D01*
X137287000Y-86056000D01*
X137284000Y-86057000D01*
X137282000Y-86057000D01*
X137279000Y-86058000D01*
X137277000Y-86058000D01*
X137274000Y-86058000D01*
X136874000Y-86058000D01*
X136474000Y-86058000D01*
X136471000Y-86058000D01*
X136469000Y-86058000D01*
X136466000Y-86057000D01*
X136464000Y-86057000D01*
X136461000Y-86056000D01*
X136459000Y-86056000D01*
X136456000Y-86055000D01*
X136454000Y-86054000D01*
X136451000Y-86053000D01*
X136449000Y-86051000D01*
X136447000Y-86050000D01*
X136445000Y-86048000D01*
X136443000Y-86047000D01*
X136441000Y-86045000D01*
X136439000Y-86043000D01*
X136437000Y-86041000D01*
X136435000Y-86039000D01*
X136434000Y-86037000D01*
X136432000Y-86035000D01*
X136431000Y-86033000D01*
X136429000Y-86031000D01*
X136428000Y-86028000D01*
X136427000Y-86026000D01*
X136426000Y-86023000D01*
X136426000Y-86021000D01*
X136425000Y-86018000D01*
X136425000Y-86016000D01*
X136424000Y-86013000D01*
X136424000Y-86011000D01*
X136424000Y-86008000D01*
X136424000Y-85208000D01*
X136424000Y-85205000D01*
X136424000Y-85203000D01*
X136425000Y-85200000D01*
X136425000Y-85198000D01*
X136426000Y-85195000D01*
X136426000Y-85193000D01*
X136427000Y-85190000D01*
X136428000Y-85188000D01*
X136429000Y-85185000D01*
X136431000Y-85183000D01*
X136432000Y-85181000D01*
X136434000Y-85179000D01*
X136435000Y-85177000D01*
X136437000Y-85175000D01*
X136439000Y-85173000D01*
X136441000Y-85171000D01*
X136443000Y-85169000D01*
X136445000Y-85168000D01*
X136447000Y-85166000D01*
X136449000Y-85165000D01*
X136451000Y-85163000D01*
X136454000Y-85162000D01*
X136456000Y-85161000D01*
X136459000Y-85160000D01*
X136461000Y-85160000D01*
X136464000Y-85159000D01*
X136466000Y-85159000D01*
X136469000Y-85158000D01*
X136471000Y-85158000D01*
X136474000Y-85158000D01*
X137274000Y-85158000D01*
X137277000Y-85158000D01*
X137279000Y-85158000D01*
X137282000Y-85159000D01*
G36*
X137282000Y-85159000D02*
G01*
X137284000Y-85159000D01*
X137287000Y-85160000D01*
X137289000Y-85160000D01*
X137292000Y-85161000D01*
X137294000Y-85162000D01*
X137297000Y-85163000D01*
X137299000Y-85165000D01*
X137301000Y-85166000D01*
X137303000Y-85168000D01*
X137305000Y-85169000D01*
X137307000Y-85171000D01*
X137309000Y-85173000D01*
X137311000Y-85175000D01*
X137313000Y-85177000D01*
X137314000Y-85179000D01*
X137316000Y-85181000D01*
X137317000Y-85183000D01*
X137319000Y-85185000D01*
X137320000Y-85188000D01*
X137321000Y-85190000D01*
X137322000Y-85193000D01*
X137322000Y-85195000D01*
X137323000Y-85198000D01*
X137323000Y-85200000D01*
X137324000Y-85203000D01*
X137324000Y-85205000D01*
X137324000Y-85208000D01*
X137324000Y-85608000D01*
X137324000Y-86008000D01*
X137324000Y-86011000D01*
X137324000Y-86013000D01*
X137323000Y-86016000D01*
X137323000Y-86018000D01*
X137322000Y-86021000D01*
X137322000Y-86023000D01*
X137321000Y-86026000D01*
X137320000Y-86028000D01*
X137319000Y-86031000D01*
X137317000Y-86033000D01*
X137316000Y-86035000D01*
X137314000Y-86037000D01*
X137313000Y-86039000D01*
X137311000Y-86041000D01*
X137309000Y-86043000D01*
X137307000Y-86045000D01*
X137305000Y-86047000D01*
X137303000Y-86048000D01*
X137301000Y-86050000D01*
X137299000Y-86051000D01*
X137297000Y-86053000D01*
X137294000Y-86054000D01*
X137292000Y-86055000D01*
X137289000Y-86056000D01*
X137287000Y-86056000D01*
X137284000Y-86057000D01*
X137282000Y-86057000D01*
X137279000Y-86058000D01*
X137277000Y-86058000D01*
X137274000Y-86058000D01*
X136874000Y-86058000D01*
X136474000Y-86058000D01*
X136471000Y-86058000D01*
X136469000Y-86058000D01*
X136466000Y-86057000D01*
X136464000Y-86057000D01*
X136461000Y-86056000D01*
X136459000Y-86056000D01*
X136456000Y-86055000D01*
X136454000Y-86054000D01*
X136451000Y-86053000D01*
X136449000Y-86051000D01*
X136447000Y-86050000D01*
X136445000Y-86048000D01*
X136443000Y-86047000D01*
X136441000Y-86045000D01*
X136439000Y-86043000D01*
X136437000Y-86041000D01*
X136435000Y-86039000D01*
X136434000Y-86037000D01*
X136432000Y-86035000D01*
X136431000Y-86033000D01*
X136429000Y-86031000D01*
X136428000Y-86028000D01*
X136427000Y-86026000D01*
X136426000Y-86023000D01*
X136426000Y-86021000D01*
X136425000Y-86018000D01*
X136425000Y-86016000D01*
X136424000Y-86013000D01*
X136424000Y-86011000D01*
X136424000Y-86008000D01*
X136424000Y-85208000D01*
X136424000Y-85205000D01*
X136424000Y-85203000D01*
X136425000Y-85200000D01*
X136425000Y-85198000D01*
X136426000Y-85195000D01*
X136426000Y-85193000D01*
X136427000Y-85190000D01*
X136428000Y-85188000D01*
X136429000Y-85185000D01*
X136431000Y-85183000D01*
X136432000Y-85181000D01*
X136434000Y-85179000D01*
X136435000Y-85177000D01*
X136437000Y-85175000D01*
X136439000Y-85173000D01*
X136441000Y-85171000D01*
X136443000Y-85169000D01*
X136445000Y-85168000D01*
X136447000Y-85166000D01*
X136449000Y-85165000D01*
X136451000Y-85163000D01*
X136454000Y-85162000D01*
X136456000Y-85161000D01*
X136459000Y-85160000D01*
X136461000Y-85160000D01*
X136464000Y-85159000D01*
X136466000Y-85159000D01*
X136469000Y-85158000D01*
X136471000Y-85158000D01*
X136474000Y-85158000D01*
X137274000Y-85158000D01*
X137277000Y-85158000D01*
X137279000Y-85158000D01*
X137282000Y-85159000D01*
G37*
X137282000Y-86259000D02*
X137284000Y-86259000D01*
X137287000Y-86260000D01*
X137289000Y-86260000D01*
X137292000Y-86261000D01*
X137294000Y-86262000D01*
X137297000Y-86263000D01*
X137299000Y-86265000D01*
X137301000Y-86266000D01*
X137303000Y-86268000D01*
X137305000Y-86269000D01*
X137307000Y-86271000D01*
X137309000Y-86273000D01*
X137311000Y-86275000D01*
X137313000Y-86277000D01*
X137314000Y-86279000D01*
X137316000Y-86281000D01*
X137317000Y-86283000D01*
X137319000Y-86285000D01*
X137320000Y-86288000D01*
X137321000Y-86290000D01*
X137322000Y-86293000D01*
X137322000Y-86295000D01*
X137323000Y-86298000D01*
X137323000Y-86300000D01*
X137324000Y-86303000D01*
X137324000Y-86305000D01*
X137324000Y-86308000D01*
X137324000Y-86708000D01*
X137324000Y-87108000D01*
X137324000Y-87111000D01*
X137324000Y-87113000D01*
X137323000Y-87116000D01*
X137323000Y-87118000D01*
X137322000Y-87121000D01*
X137322000Y-87123000D01*
X137321000Y-87126000D01*
X137320000Y-87128000D01*
X137319000Y-87131000D01*
X137317000Y-87133000D01*
X137316000Y-87135000D01*
X137314000Y-87137000D01*
X137313000Y-87139000D01*
X137311000Y-87141000D01*
X137309000Y-87143000D01*
X137307000Y-87145000D01*
X137305000Y-87147000D01*
X137303000Y-87148000D01*
X137301000Y-87150000D01*
X137299000Y-87151000D01*
X137297000Y-87153000D01*
X137294000Y-87154000D01*
X137292000Y-87155000D01*
X137289000Y-87156000D01*
X137287000Y-87156000D01*
X137284000Y-87157000D01*
X137282000Y-87157000D01*
X137279000Y-87158000D01*
X137277000Y-87158000D01*
X137274000Y-87158000D01*
X136874000Y-87158000D01*
X136474000Y-87158000D01*
X136471000Y-87158000D01*
X136469000Y-87158000D01*
X136466000Y-87157000D01*
X136464000Y-87157000D01*
X136461000Y-87156000D01*
X136459000Y-87156000D01*
X136456000Y-87155000D01*
X136454000Y-87154000D01*
X136451000Y-87153000D01*
X136449000Y-87151000D01*
X136447000Y-87150000D01*
X136445000Y-87148000D01*
X136443000Y-87147000D01*
X136441000Y-87145000D01*
X136439000Y-87143000D01*
X136437000Y-87141000D01*
X136435000Y-87139000D01*
X136434000Y-87137000D01*
X136432000Y-87135000D01*
X136431000Y-87133000D01*
X136429000Y-87131000D01*
X136428000Y-87128000D01*
X136427000Y-87126000D01*
X136426000Y-87123000D01*
X136426000Y-87121000D01*
X136425000Y-87118000D01*
X136425000Y-87116000D01*
X136424000Y-87113000D01*
X136424000Y-87111000D01*
X136424000Y-87108000D01*
X136424000Y-86308000D01*
X136424000Y-86305000D01*
X136424000Y-86303000D01*
X136425000Y-86300000D01*
X136425000Y-86298000D01*
X136426000Y-86295000D01*
X136426000Y-86293000D01*
X136427000Y-86290000D01*
X136428000Y-86288000D01*
X136429000Y-86285000D01*
X136431000Y-86283000D01*
X136432000Y-86281000D01*
X136434000Y-86279000D01*
X136435000Y-86277000D01*
X136437000Y-86275000D01*
X136439000Y-86273000D01*
X136441000Y-86271000D01*
X136443000Y-86269000D01*
X136445000Y-86268000D01*
X136447000Y-86266000D01*
X136449000Y-86265000D01*
X136451000Y-86263000D01*
X136454000Y-86262000D01*
X136456000Y-86261000D01*
X136459000Y-86260000D01*
X136461000Y-86260000D01*
X136464000Y-86259000D01*
X136466000Y-86259000D01*
X136469000Y-86258000D01*
X136471000Y-86258000D01*
X136474000Y-86258000D01*
X137274000Y-86258000D01*
X137277000Y-86258000D01*
X137279000Y-86258000D01*
X137282000Y-86259000D01*
G36*
X137282000Y-86259000D02*
G01*
X137284000Y-86259000D01*
X137287000Y-86260000D01*
X137289000Y-86260000D01*
X137292000Y-86261000D01*
X137294000Y-86262000D01*
X137297000Y-86263000D01*
X137299000Y-86265000D01*
X137301000Y-86266000D01*
X137303000Y-86268000D01*
X137305000Y-86269000D01*
X137307000Y-86271000D01*
X137309000Y-86273000D01*
X137311000Y-86275000D01*
X137313000Y-86277000D01*
X137314000Y-86279000D01*
X137316000Y-86281000D01*
X137317000Y-86283000D01*
X137319000Y-86285000D01*
X137320000Y-86288000D01*
X137321000Y-86290000D01*
X137322000Y-86293000D01*
X137322000Y-86295000D01*
X137323000Y-86298000D01*
X137323000Y-86300000D01*
X137324000Y-86303000D01*
X137324000Y-86305000D01*
X137324000Y-86308000D01*
X137324000Y-86708000D01*
X137324000Y-87108000D01*
X137324000Y-87111000D01*
X137324000Y-87113000D01*
X137323000Y-87116000D01*
X137323000Y-87118000D01*
X137322000Y-87121000D01*
X137322000Y-87123000D01*
X137321000Y-87126000D01*
X137320000Y-87128000D01*
X137319000Y-87131000D01*
X137317000Y-87133000D01*
X137316000Y-87135000D01*
X137314000Y-87137000D01*
X137313000Y-87139000D01*
X137311000Y-87141000D01*
X137309000Y-87143000D01*
X137307000Y-87145000D01*
X137305000Y-87147000D01*
X137303000Y-87148000D01*
X137301000Y-87150000D01*
X137299000Y-87151000D01*
X137297000Y-87153000D01*
X137294000Y-87154000D01*
X137292000Y-87155000D01*
X137289000Y-87156000D01*
X137287000Y-87156000D01*
X137284000Y-87157000D01*
X137282000Y-87157000D01*
X137279000Y-87158000D01*
X137277000Y-87158000D01*
X137274000Y-87158000D01*
X136874000Y-87158000D01*
X136474000Y-87158000D01*
X136471000Y-87158000D01*
X136469000Y-87158000D01*
X136466000Y-87157000D01*
X136464000Y-87157000D01*
X136461000Y-87156000D01*
X136459000Y-87156000D01*
X136456000Y-87155000D01*
X136454000Y-87154000D01*
X136451000Y-87153000D01*
X136449000Y-87151000D01*
X136447000Y-87150000D01*
X136445000Y-87148000D01*
X136443000Y-87147000D01*
X136441000Y-87145000D01*
X136439000Y-87143000D01*
X136437000Y-87141000D01*
X136435000Y-87139000D01*
X136434000Y-87137000D01*
X136432000Y-87135000D01*
X136431000Y-87133000D01*
X136429000Y-87131000D01*
X136428000Y-87128000D01*
X136427000Y-87126000D01*
X136426000Y-87123000D01*
X136426000Y-87121000D01*
X136425000Y-87118000D01*
X136425000Y-87116000D01*
X136424000Y-87113000D01*
X136424000Y-87111000D01*
X136424000Y-87108000D01*
X136424000Y-86308000D01*
X136424000Y-86305000D01*
X136424000Y-86303000D01*
X136425000Y-86300000D01*
X136425000Y-86298000D01*
X136426000Y-86295000D01*
X136426000Y-86293000D01*
X136427000Y-86290000D01*
X136428000Y-86288000D01*
X136429000Y-86285000D01*
X136431000Y-86283000D01*
X136432000Y-86281000D01*
X136434000Y-86279000D01*
X136435000Y-86277000D01*
X136437000Y-86275000D01*
X136439000Y-86273000D01*
X136441000Y-86271000D01*
X136443000Y-86269000D01*
X136445000Y-86268000D01*
X136447000Y-86266000D01*
X136449000Y-86265000D01*
X136451000Y-86263000D01*
X136454000Y-86262000D01*
X136456000Y-86261000D01*
X136459000Y-86260000D01*
X136461000Y-86260000D01*
X136464000Y-86259000D01*
X136466000Y-86259000D01*
X136469000Y-86258000D01*
X136471000Y-86258000D01*
X136474000Y-86258000D01*
X137274000Y-86258000D01*
X137277000Y-86258000D01*
X137279000Y-86258000D01*
X137282000Y-86259000D01*
G37*
%TD*%
D11*
%TO.C,U1*%
X135924000Y-84908000D03*
X135924000Y-85408000D03*
X135924000Y-85908000D03*
X135924000Y-86408000D03*
X135924000Y-86908000D03*
X135924000Y-87408000D03*
X137824000Y-87408000D03*
X137824000Y-86908000D03*
X137824000Y-86408000D03*
X137824000Y-85908000D03*
X137824000Y-85408000D03*
X137824000Y-84908000D03*
%TD*%
D12*
%TO.C,R3*%
X139490200Y-88718000D03*
X141315200Y-88718000D03*
%TD*%
D13*
%TO.C,C2*%
X139490200Y-83890900D03*
X139490200Y-82165900D03*
%TD*%
D14*
%TO.C,R2*%
X138017000Y-88718000D03*
X136192000Y-88718000D03*
%TD*%
D12*
%TO.C,R6*%
X146175000Y-85517600D03*
X148000000Y-85517600D03*
%TD*%
%TO.C,R1*%
X141549500Y-87168600D03*
X143374500Y-87168600D03*
%TD*%
D15*
%TO.C,C5*%
X146225000Y-82469600D03*
X147950000Y-82469600D03*
%TD*%
D16*
%TO.C,D1*%
X135251000Y-81377400D03*
X137001000Y-81377400D03*
%TD*%
D14*
%TO.C,R4*%
X148000000Y-83993600D03*
X146175000Y-83993600D03*
%TD*%
D17*
%TO.C,C3*%
X137914300Y-83460200D03*
X136189300Y-83460200D03*
%TD*%
D18*
%TO.C,IC1*%
X142124000Y-84751000D03*
X142674000Y-84751000D03*
X143224000Y-84751000D03*
X143224000Y-82876000D03*
X142674000Y-82876000D03*
X142124000Y-82876000D03*
D19*
X141424000Y-83813000D03*
X143924000Y-83813000D03*
D20*
X142674000Y-83813000D03*
%TD*%
D15*
%TO.C,C4*%
X142616600Y-80920200D03*
X144341600Y-80920200D03*
%TD*%
D21*
%TO.C,C1*%
X139490200Y-85467900D03*
X139490200Y-87192900D03*
%TD*%
D22*
%TO.C,U3*%
X138860000Y-72098600D03*
X138860000Y-73198600D03*
X138860000Y-74298600D03*
X139960000Y-72098600D03*
X139960000Y-73198600D03*
X139960000Y-74298600D03*
X141060000Y-72098600D03*
X141060000Y-73198600D03*
X141060000Y-74298600D03*
D23*
X130250000Y-66998600D03*
X130250000Y-68498600D03*
X130250000Y-69998600D03*
X130250000Y-71498600D03*
X130250000Y-72998600D03*
X130250000Y-74498600D03*
X130250000Y-75998600D03*
X130250000Y-77498600D03*
X130250000Y-78998600D03*
X147750000Y-78998600D03*
X147750000Y-77498600D03*
X147750000Y-75998600D03*
X147750000Y-74498600D03*
X147750000Y-72998600D03*
X147750000Y-71498600D03*
X147750000Y-69998600D03*
X147750000Y-68498600D03*
X147750000Y-66998600D03*
%TD*%
D12*
%TO.C,R5*%
X146175000Y-80971000D03*
X148000000Y-80971000D03*
%TD*%
D24*
%TO.C,U2*%
X133358100Y-83536400D03*
X133358100Y-84019000D03*
X133358100Y-84527000D03*
X133358100Y-85035000D03*
X133358100Y-85517600D03*
X133358100Y-86025600D03*
X133358100Y-86533600D03*
X133358100Y-87041600D03*
X133358100Y-87524200D03*
X133358100Y-88032200D03*
X133358100Y-88540200D03*
X133358100Y-89022800D03*
D25*
X132088100Y-90800800D03*
X132088100Y-81758400D03*
%TD*%
M02*
